<svg width="5033" height="2027" viewBox="0 0 5033 2027" fill="none" xmlns="http://www.w3.org/2000/svg">
<g clip-path="url(#clip0_670_1087)">
<path d="M5028 1097.6H-16V342.612L148.088 322.061L148.111 322.058L148.134 322.055C316.524 299.372 652.368 259.746 988.046 385.481C1156.16 449.651 1323.9 555.061 1492.9 642.577C1661.45 729.859 1830.97 799.131 2000.89 789.092C2170.7 779.06 2340.18 687.824 2508.42 594.737C2677.18 501.362 2844.71 406.123 3012 385.763L3012.02 385.762L3012.03 385.76C3179.2 364.624 3346.6 417.242 3515.23 473.034C3683.42 528.68 3852.88 587.513 4022.51 576.89L4022.54 576.888C4192.24 565.458 4361.56 485.611 4509.25 390.175C4657.01 294.702 4783.6 183.306 4867.84 108.251L5028 -32.9277V1097.6Z" fill="white" stroke="black" stroke-width="10"/>
<path d="M-16 841.599L5028 841.599V1596.59L4863.91 1617.14L4863.89 1617.14L4863.87 1617.14C4695.48 1639.83 4359.63 1679.45 4023.95 1553.72C3855.84 1489.55 3688.1 1384.14 3519.1 1296.62C3350.55 1209.34 3181.03 1140.07 3011.11 1150.11C2841.3 1160.14 2671.82 1251.38 2503.58 1344.46C2334.82 1437.84 2167.29 1533.08 2000 1553.44L1999.98 1553.44L1999.97 1553.44C1832.8 1574.57 1665.4 1521.96 1496.77 1466.17C1328.58 1410.52 1159.12 1351.69 989.487 1362.31L989.464 1362.31C819.758 1373.74 650.439 1453.59 502.744 1549.02C354.983 1644.5 228.384 1755.91 144.141 1830.96L144.142 1830.97L-16 1972.13V841.599Z" fill="white" stroke="black" stroke-width="10"/>
<rect x="-17" y="834" width="5045" height="153" fill="white"/>
</g>
<defs>
<clipPath id="clip0_670_1087">
<rect width="5033" height="2027" fill="white"/>
</clipPath>
</defs>
</svg>
