<svg width="212" height="212" viewBox="0 0 212 212" fill="none" xmlns="http://www.w3.org/2000/svg">
<path d="M106 0C134.113 0 161.074 11.1678 180.953 31.0467C200.832 50.9255 212 77.8871 212 106C212 134.113 200.832 161.074 180.953 180.953C161.074 200.832 134.113 212 106 212C77.8871 212 50.9255 200.832 31.0467 180.953C11.1678 161.074 0 134.113 0 106C0 77.8871 11.1678 50.9255 31.0467 31.0467C50.9255 11.1678 77.8871 0 106 0ZM111.618 45.3074C99.2917 45.3074 89.6306 48.8054 82.468 55.8014C75.1389 62.7974 71.6409 72.4586 71.6409 84.7849H90.63C90.63 77.7889 91.9626 72.292 94.7943 68.4609C97.9592 63.7969 103.123 61.6314 110.452 61.6314C116.115 61.6314 120.613 63.1306 123.778 66.2954C126.776 69.4603 128.442 73.7911 128.442 79.288C128.442 83.4523 126.943 87.45 123.944 91.1146L121.945 93.4466C111.118 103.108 104.622 110.104 102.457 114.601C100.125 119.099 99.1251 124.595 99.1251 130.925V133.257H118.281V130.925C118.281 126.927 119.114 123.429 120.779 120.098C122.279 117.1 124.444 114.268 127.442 111.769C135.438 104.773 140.268 100.276 141.767 98.6103C145.765 93.28 147.931 86.4506 147.931 78.122C147.931 67.9611 144.599 59.9657 137.936 54.1357C131.273 48.1391 122.445 45.3074 111.618 45.3074ZM108.62 141.419C105.223 141.327 101.929 142.585 99.4583 144.917C98.2383 146.066 97.2797 147.464 96.6475 149.016C96.0152 150.568 95.724 152.238 95.7937 153.912C95.7937 157.577 96.9597 160.575 99.4583 162.907C101.911 165.287 105.203 166.604 108.62 166.571C112.284 166.571 115.283 165.405 117.781 163.073C119.027 161.901 120.012 160.479 120.672 158.901C121.332 157.322 121.652 155.622 121.612 153.912C121.644 152.242 121.336 150.584 120.706 149.037C120.076 147.491 119.137 146.089 117.948 144.917C115.413 142.581 112.066 141.326 108.62 141.419Z" fill="black"/>
</svg>
