<svg width="1712" height="768" viewBox="0 0 1712 768" fill="none" xmlns="http://www.w3.org/2000/svg">
<mask id="path-1-outside-1_827_1286" maskUnits="userSpaceOnUse" x="14.8137" y="176.519" width="1685.27" height="536.47" fill="black">
<rect fill="white" x="14.8137" y="176.519" width="1685.27" height="536.47"/>
<path d="M77.1604 619.156L95.3297 272.464L44.3743 269.793L48.693 187.387L236.424 197.226L232.105 279.632L181.149 276.961L162.98 623.654L77.1604 619.156ZM233.928 627.372L256.416 198.273L339.31 202.618L316.822 631.716L233.928 627.372ZM350.955 633.505L373.443 204.406L504.123 211.255L526.496 474.75L576.045 215.024L707.945 221.937L685.456 651.035L606.951 646.921L623.153 337.775L557.702 644.34L480.659 640.303L444.687 328.422L428.485 637.568L350.955 633.505ZM723.49 653.029L745.978 223.93L917.618 232.925L913.273 315.819L828.917 311.398L824.534 395.024L905.478 399.266L901.248 479.966L820.305 475.724L815.155 573.978L905.12 578.692L900.737 662.318L723.49 653.029ZM929.262 663.813L951.751 234.714L1037.57 239.212L1018.92 595.169L1107.17 599.794L1103.34 672.936L929.262 663.813ZM1123.82 674.009L1146.31 244.911L1229.2 249.255L1206.71 678.353L1123.82 674.009ZM1240.85 680.142L1263.33 251.044L1351.59 255.669L1380.32 463.267L1391.09 257.739L1473.98 262.083L1451.49 691.182L1367.63 686.786L1335.96 469.988L1324.72 684.538L1240.85 680.142ZM1489.53 693.175L1512.02 264.077L1683.66 273.072L1679.31 355.966L1594.96 351.545L1590.57 435.17L1671.52 439.412L1667.29 520.112L1586.34 515.87L1581.19 614.124L1671.16 618.839L1666.78 702.464L1489.53 693.175Z"/>
</mask>
<path d="M77.1604 619.156L95.3297 272.464L44.3743 269.793L48.693 187.387L236.424 197.226L232.105 279.632L181.149 276.961L162.98 623.654L77.1604 619.156ZM233.928 627.372L256.416 198.273L339.31 202.618L316.822 631.716L233.928 627.372ZM350.955 633.505L373.443 204.406L504.123 211.255L526.496 474.75L576.045 215.024L707.945 221.937L685.456 651.035L606.951 646.921L623.153 337.775L557.702 644.34L480.659 640.303L444.687 328.422L428.485 637.568L350.955 633.505ZM723.49 653.029L745.978 223.93L917.618 232.925L913.273 315.819L828.917 311.398L824.534 395.024L905.478 399.266L901.248 479.966L820.305 475.724L815.155 573.978L905.12 578.692L900.737 662.318L723.49 653.029ZM929.262 663.813L951.751 234.714L1037.57 239.212L1018.92 595.169L1107.17 599.794L1103.34 672.936L929.262 663.813ZM1123.82 674.009L1146.31 244.911L1229.2 249.255L1206.71 678.353L1123.82 674.009ZM1240.85 680.142L1263.33 251.044L1351.59 255.669L1380.32 463.267L1391.09 257.739L1473.98 262.083L1451.49 691.182L1367.63 686.786L1335.96 469.988L1324.72 684.538L1240.85 680.142ZM1489.53 693.175L1512.02 264.077L1683.66 273.072L1679.31 355.966L1594.96 351.545L1590.57 435.17L1671.52 439.412L1667.29 520.112L1586.34 515.87L1581.19 614.124L1671.16 618.839L1666.78 702.464L1489.53 693.175Z" fill="black"/>
<path d="M77.1604 619.156L67.1741 618.633L66.6507 628.619L76.637 629.142L77.1604 619.156ZM95.3297 272.464L105.316 272.987L105.839 263.001L95.8531 262.478L95.3297 272.464ZM44.3743 269.793L34.388 269.27L33.8646 279.256L43.8509 279.78L44.3743 269.793ZM48.693 187.387L49.2164 177.401L39.2301 176.877L38.7067 186.864L48.693 187.387ZM236.424 197.226L246.41 197.749L246.933 187.763L236.947 187.239L236.424 197.226ZM232.105 279.632L231.582 289.618L241.568 290.142L242.091 280.155L232.105 279.632ZM181.149 276.961L181.673 266.975L171.687 266.452L171.163 276.438L181.149 276.961ZM162.98 623.654L162.457 633.64L172.443 634.163L172.966 624.177L162.98 623.654ZM77.1604 619.156L87.1467 619.679L105.316 272.987L95.3297 272.464L85.3434 271.941L67.1741 618.633L77.1604 619.156ZM95.3297 272.464L95.8531 262.478L44.8976 259.807L44.3743 269.793L43.8509 279.78L94.8064 282.45L95.3297 272.464ZM44.3743 269.793L54.3606 270.317L58.6793 187.91L48.693 187.387L38.7067 186.864L34.388 269.27L44.3743 269.793ZM48.693 187.387L48.1697 197.373L235.9 207.212L236.424 197.226L236.947 187.239L49.2164 177.401L48.693 187.387ZM236.424 197.226L226.437 196.702L222.119 279.109L232.105 279.632L242.091 280.155L246.41 197.749L236.424 197.226ZM232.105 279.632L232.628 269.646L181.673 266.975L181.149 276.961L180.626 286.948L231.582 289.618L232.105 279.632ZM181.149 276.961L171.163 276.438L152.994 623.13L162.98 623.654L172.966 624.177L191.136 277.485L181.149 276.961ZM162.98 623.654L163.503 613.667L77.6837 609.17L77.1604 619.156L76.637 629.142L162.457 633.64L162.98 623.654ZM233.928 627.372L223.941 626.849L223.418 636.835L233.404 637.358L233.928 627.372ZM256.416 198.273L256.939 188.287L246.953 187.764L246.429 197.75L256.416 198.273ZM339.31 202.618L349.296 203.141L349.819 193.155L339.833 192.631L339.31 202.618ZM316.822 631.716L316.298 641.702L326.285 642.226L326.808 632.24L316.822 631.716ZM233.928 627.372L243.914 627.895L266.402 198.797L256.416 198.273L246.429 197.75L223.941 626.849L233.928 627.372ZM256.416 198.273L255.892 208.26L338.786 212.604L339.31 202.618L339.833 192.631L256.939 188.287L256.416 198.273ZM339.31 202.618L329.324 202.094L306.835 631.193L316.822 631.716L326.808 632.24L349.296 203.141L339.31 202.618ZM316.822 631.716L317.345 621.73L234.451 617.386L233.928 627.372L233.404 637.358L316.298 641.702L316.822 631.716ZM350.955 633.505L340.968 632.982L340.445 642.968L350.431 643.491L350.955 633.505ZM373.443 204.406L373.966 194.42L363.98 193.897L363.456 203.883L373.443 204.406ZM504.123 211.255L514.087 210.409L513.349 201.725L504.646 201.269L504.123 211.255ZM526.496 474.75L516.532 475.596L536.319 476.624L526.496 474.75ZM576.045 215.024L576.569 205.038L567.857 204.581L566.223 213.15L576.045 215.024ZM707.945 221.937L717.931 222.46L718.454 212.474L708.468 211.951L707.945 221.937ZM685.456 651.035L684.933 661.022L694.919 661.545L695.443 651.559L685.456 651.035ZM606.951 646.921L596.965 646.398L596.441 656.384L606.428 656.907L606.951 646.921ZM623.153 337.775L633.139 338.298L613.373 335.687L623.153 337.775ZM557.702 644.34L557.179 654.326L565.7 654.773L567.482 646.428L557.702 644.34ZM480.659 640.303L470.725 641.448L471.694 649.846L480.136 650.289L480.659 640.303ZM444.687 328.422L454.621 327.276L434.7 327.899L444.687 328.422ZM428.485 637.568L427.962 647.554L437.948 648.078L438.471 638.092L428.485 637.568ZM350.955 633.505L360.941 634.028L383.429 204.93L373.443 204.406L363.456 203.883L340.968 632.982L350.955 633.505ZM373.443 204.406L372.919 214.393L503.599 221.241L504.123 211.255L504.646 201.269L373.966 194.42L373.443 204.406ZM504.123 211.255L494.159 212.101L516.532 475.596L526.496 474.75L536.46 473.904L514.087 210.409L504.123 211.255ZM526.496 474.75L536.319 476.624L585.868 216.898L576.045 215.024L566.223 213.15L516.673 472.876L526.496 474.75ZM576.045 215.024L575.522 225.011L707.421 231.923L707.945 221.937L708.468 211.951L576.569 205.038L576.045 215.024ZM707.945 221.937L697.958 221.414L675.47 650.512L685.456 651.035L695.443 651.559L717.931 222.46L707.945 221.937ZM685.456 651.035L685.98 641.049L607.474 636.935L606.951 646.921L606.428 656.907L684.933 661.022L685.456 651.035ZM606.951 646.921L616.937 647.445L633.139 338.298L623.153 337.775L613.166 337.252L596.965 646.398L606.951 646.921ZM623.153 337.775L613.373 335.687L547.922 642.252L557.702 644.34L567.482 646.428L632.932 339.863L623.153 337.775ZM557.702 644.34L558.225 634.354L481.183 630.316L480.659 640.303L480.136 650.289L557.179 654.326L557.702 644.34ZM480.659 640.303L490.593 639.157L454.621 327.276L444.687 328.422L434.752 329.568L470.725 641.448L480.659 640.303ZM444.687 328.422L434.7 327.899L418.499 637.045L428.485 637.568L438.471 638.092L454.673 328.945L444.687 328.422ZM428.485 637.568L429.008 627.582L351.478 623.519L350.955 633.505L350.431 643.491L427.962 647.554L428.485 637.568ZM723.49 653.029L713.504 652.505L712.981 662.492L722.967 663.015L723.49 653.029ZM745.978 223.93L746.502 213.944L736.515 213.42L735.992 223.407L745.978 223.93ZM917.618 232.925L927.604 233.449L928.127 223.462L918.141 222.939L917.618 232.925ZM913.273 315.819L912.75 325.806L922.736 326.329L923.26 316.343L913.273 315.819ZM828.917 311.398L829.44 301.412L819.454 300.889L818.93 310.875L828.917 311.398ZM824.534 395.024L814.548 394.501L814.024 404.487L824.011 405.01L824.534 395.024ZM905.478 399.266L915.464 399.789L915.987 389.803L906.001 389.28L905.478 399.266ZM901.248 479.966L900.725 489.952L910.711 490.475L911.235 480.489L901.248 479.966ZM820.305 475.724L820.828 465.737L810.842 465.214L810.318 475.2L820.305 475.724ZM815.155 573.978L805.169 573.454L804.646 583.441L814.632 583.964L815.155 573.978ZM905.12 578.692L915.106 579.216L915.629 569.229L905.643 568.706L905.12 578.692ZM900.737 662.318L900.214 672.304L910.2 672.828L910.723 662.841L900.737 662.318ZM723.49 653.029L733.476 653.552L755.965 224.453L745.978 223.93L735.992 223.407L713.504 652.505L723.49 653.029ZM745.978 223.93L745.455 233.916L917.094 242.912L917.618 232.925L918.141 222.939L746.502 213.944L745.978 223.93ZM917.618 232.925L907.631 232.402L903.287 315.296L913.273 315.819L923.26 316.343L927.604 233.449L917.618 232.925ZM913.273 315.819L913.797 305.833L829.44 301.412L828.917 311.398L828.393 321.385L912.75 325.806L913.273 315.819ZM828.917 311.398L818.93 310.875L814.548 394.501L824.534 395.024L834.52 395.547L838.903 311.922L828.917 311.398ZM824.534 395.024L824.011 405.01L904.954 409.252L905.478 399.266L906.001 389.28L825.057 385.038L824.534 395.024ZM905.478 399.266L895.491 398.743L891.262 479.442L901.248 479.966L911.235 480.489L915.464 399.789L905.478 399.266ZM901.248 479.966L901.772 469.98L820.828 465.737L820.305 475.724L819.781 485.71L900.725 489.952L901.248 479.966ZM820.305 475.724L810.318 475.2L805.169 573.454L815.155 573.978L825.142 574.501L830.291 476.247L820.305 475.724ZM815.155 573.978L814.632 583.964L904.596 588.679L905.12 578.692L905.643 568.706L815.679 563.991L815.155 573.978ZM905.12 578.692L895.133 578.169L890.751 661.795L900.737 662.318L910.723 662.841L915.106 579.216L905.12 578.692ZM900.737 662.318L901.261 652.332L724.014 643.042L723.49 653.029L722.967 663.015L900.214 672.304L900.737 662.318ZM929.262 663.813L919.276 663.289L918.753 673.276L928.739 673.799L929.262 663.813ZM951.751 234.714L952.274 224.728L942.288 224.205L941.764 234.191L951.751 234.714ZM1037.57 239.212L1047.56 239.735L1048.08 229.749L1038.09 229.226L1037.57 239.212ZM1018.92 595.169L1008.93 594.645L1008.41 604.632L1018.39 605.155L1018.92 595.169ZM1107.17 599.794L1117.16 600.317L1117.68 590.331L1107.7 589.808L1107.17 599.794ZM1103.34 672.936L1102.82 682.922L1112.8 683.445L1113.33 673.459L1103.34 672.936ZM929.262 663.813L939.249 664.336L961.737 235.238L951.751 234.714L941.764 234.191L919.276 663.289L929.262 663.813ZM951.751 234.714L951.227 244.7L1037.05 249.198L1037.57 239.212L1038.09 229.226L952.274 224.728L951.751 234.714ZM1037.57 239.212L1027.58 238.688L1008.93 594.645L1018.92 595.169L1028.9 595.692L1047.56 239.735L1037.57 239.212ZM1018.92 595.169L1018.39 605.155L1106.65 609.78L1107.17 599.794L1107.7 589.808L1019.44 585.182L1018.92 595.169ZM1107.17 599.794L1097.19 599.271L1093.35 672.412L1103.34 672.936L1113.33 673.459L1117.16 600.317L1107.17 599.794ZM1103.34 672.936L1103.86 662.95L929.786 653.827L929.262 663.813L928.739 673.799L1102.82 682.922L1103.34 672.936ZM1123.82 674.009L1113.83 673.486L1113.31 683.472L1123.3 683.995L1123.82 674.009ZM1146.31 244.911L1146.83 234.924L1136.84 234.401L1136.32 244.387L1146.31 244.911ZM1229.2 249.255L1239.19 249.778L1239.71 239.792L1229.73 239.269L1229.2 249.255ZM1206.71 678.353L1206.19 688.34L1216.18 688.863L1216.7 678.877L1206.71 678.353ZM1123.82 674.009L1133.81 674.532L1156.29 245.434L1146.31 244.911L1136.32 244.387L1113.83 673.486L1123.82 674.009ZM1146.31 244.911L1145.78 254.897L1228.68 259.241L1229.2 249.255L1229.73 239.269L1146.83 234.924L1146.31 244.911ZM1229.2 249.255L1219.22 248.731L1196.73 677.83L1206.71 678.353L1216.7 678.877L1239.19 249.778L1229.2 249.255ZM1206.71 678.353L1207.24 668.367L1124.34 664.023L1123.82 674.009L1123.3 683.995L1206.19 688.34L1206.71 678.353ZM1240.85 680.142L1230.86 679.619L1230.34 689.605L1240.32 690.129L1240.85 680.142ZM1263.33 251.044L1263.86 241.057L1253.87 240.534L1253.35 250.52L1263.33 251.044ZM1351.59 255.669L1361.5 254.298L1360.37 246.115L1352.12 245.683L1351.59 255.669ZM1380.32 463.267L1370.41 464.638L1390.3 463.791L1380.32 463.267ZM1391.09 257.739L1391.61 247.753L1381.63 247.229L1381.1 257.216L1391.09 257.739ZM1473.98 262.083L1483.97 262.607L1484.49 252.62L1474.51 252.097L1473.98 262.083ZM1451.49 691.182L1450.97 701.168L1460.96 701.692L1461.48 691.705L1451.49 691.182ZM1367.63 686.786L1357.73 688.232L1358.92 696.344L1367.1 696.773L1367.63 686.786ZM1335.96 469.988L1345.85 468.543L1325.97 469.465L1335.96 469.988ZM1324.72 684.538L1324.19 694.524L1334.18 695.047L1334.7 685.061L1324.72 684.538ZM1240.85 680.142L1250.83 680.666L1273.32 251.567L1263.33 251.044L1253.35 250.52L1230.86 679.619L1240.85 680.142ZM1263.33 251.044L1262.81 261.03L1351.07 265.655L1351.59 255.669L1352.12 245.683L1263.86 241.057L1263.33 251.044ZM1351.59 255.669L1341.69 257.04L1370.41 464.638L1380.32 463.267L1390.22 461.897L1361.5 254.298L1351.59 255.669ZM1380.32 463.267L1390.3 463.791L1401.08 258.262L1391.09 257.739L1381.1 257.216L1370.33 462.744L1380.32 463.267ZM1391.09 257.739L1390.57 267.725L1473.46 272.07L1473.98 262.083L1474.51 252.097L1391.61 247.753L1391.09 257.739ZM1473.98 262.083L1464 261.56L1441.51 690.659L1451.49 691.182L1461.48 691.705L1483.97 262.607L1473.98 262.083ZM1451.49 691.182L1452.02 681.196L1368.15 676.8L1367.63 686.786L1367.1 696.773L1450.97 701.168L1451.49 691.182ZM1367.63 686.786L1377.52 685.341L1345.85 468.543L1335.96 469.988L1326.06 471.434L1357.73 688.232L1367.63 686.786ZM1335.96 469.988L1325.97 469.465L1314.73 684.014L1324.72 684.538L1334.7 685.061L1345.95 470.512L1335.96 469.988ZM1324.72 684.538L1325.24 674.551L1241.37 670.156L1240.85 680.142L1240.32 690.129L1324.19 694.524L1324.72 684.538ZM1489.53 693.175L1479.54 692.652L1479.02 702.638L1489.01 703.161L1489.53 693.175ZM1512.02 264.077L1512.54 254.09L1502.55 253.567L1502.03 263.553L1512.02 264.077ZM1683.66 273.072L1693.64 273.595L1694.17 263.609L1684.18 263.085L1683.66 273.072ZM1679.31 355.966L1678.79 365.952L1688.77 366.475L1689.3 356.489L1679.31 355.966ZM1594.96 351.545L1595.48 341.559L1585.49 341.035L1584.97 351.021L1594.96 351.545ZM1590.57 435.17L1580.59 434.647L1580.06 444.633L1590.05 445.157L1590.57 435.17ZM1671.52 439.412L1681.5 439.936L1682.03 429.949L1672.04 429.426L1671.52 439.412ZM1667.29 520.112L1666.76 530.098L1676.75 530.622L1677.27 520.636L1667.29 520.112ZM1586.34 515.87L1586.87 505.884L1576.88 505.36L1576.36 515.347L1586.34 515.87ZM1581.19 614.124L1571.21 613.601L1570.68 623.587L1580.67 624.11L1581.19 614.124ZM1671.16 618.839L1681.14 619.362L1681.67 609.376L1671.68 608.852L1671.16 618.839ZM1666.78 702.464L1666.25 712.451L1676.24 712.974L1676.76 702.988L1666.78 702.464ZM1489.53 693.175L1499.52 693.698L1522 264.6L1512.02 264.077L1502.03 263.553L1479.54 692.652L1489.53 693.175ZM1512.02 264.077L1511.49 274.063L1683.13 283.058L1683.66 273.072L1684.18 263.085L1512.54 254.09L1512.02 264.077ZM1683.66 273.072L1673.67 272.548L1669.33 355.442L1679.31 355.966L1689.3 356.489L1693.64 273.595L1683.66 273.072ZM1679.31 355.966L1679.84 345.98L1595.48 341.559L1594.96 351.545L1594.43 361.531L1678.79 365.952L1679.31 355.966ZM1594.96 351.545L1584.97 351.021L1580.59 434.647L1590.57 435.17L1600.56 435.694L1604.94 352.068L1594.96 351.545ZM1590.57 435.17L1590.05 445.157L1670.99 449.399L1671.52 439.412L1672.04 429.426L1591.1 425.184L1590.57 435.17ZM1671.52 439.412L1661.53 438.889L1657.3 519.589L1667.29 520.112L1677.27 520.636L1681.5 439.936L1671.52 439.412ZM1667.29 520.112L1667.81 510.126L1586.87 505.884L1586.34 515.87L1585.82 525.856L1666.76 530.098L1667.29 520.112ZM1586.34 515.87L1576.36 515.347L1571.21 613.601L1581.19 614.124L1591.18 614.647L1596.33 516.393L1586.34 515.87ZM1581.19 614.124L1580.67 624.11L1670.63 628.825L1671.16 618.839L1671.68 608.852L1581.72 604.138L1581.19 614.124ZM1671.16 618.839L1661.17 618.315L1656.79 701.941L1666.78 702.464L1676.76 702.988L1681.14 619.362L1671.16 618.839ZM1666.78 702.464L1667.3 692.478L1490.05 683.189L1489.53 693.175L1489.01 703.161L1666.25 712.451L1666.78 702.464Z" fill="black" mask="url(#path-1-outside-1_827_1286)"/>
<path d="M77.1604 619.156L67.1741 618.633L66.6507 628.619L76.637 629.142L77.1604 619.156ZM95.3297 272.464L105.316 272.987L105.839 263.001L95.8531 262.478L95.3297 272.464ZM44.3743 269.793L34.388 269.27L33.8646 279.256L43.8509 279.78L44.3743 269.793ZM48.693 187.387L49.2164 177.401L39.2301 176.877L38.7067 186.864L48.693 187.387ZM236.424 197.226L246.41 197.749L246.933 187.763L236.947 187.239L236.424 197.226ZM232.105 279.632L231.582 289.618L241.568 290.142L242.091 280.155L232.105 279.632ZM181.149 276.961L181.673 266.975L171.687 266.452L171.163 276.438L181.149 276.961ZM162.98 623.654L162.457 633.64L172.443 634.163L172.966 624.177L162.98 623.654ZM77.1604 619.156L87.1467 619.679L105.316 272.987L95.3297 272.464L85.3434 271.941L67.1741 618.633L77.1604 619.156ZM95.3297 272.464L95.8531 262.478L44.8976 259.807L44.3743 269.793L43.8509 279.78L94.8064 282.45L95.3297 272.464ZM44.3743 269.793L54.3606 270.317L58.6793 187.91L48.693 187.387L38.7067 186.864L34.388 269.27L44.3743 269.793ZM48.693 187.387L48.1697 197.373L235.9 207.212L236.424 197.226L236.947 187.239L49.2164 177.401L48.693 187.387ZM236.424 197.226L226.437 196.702L222.119 279.109L232.105 279.632L242.091 280.155L246.41 197.749L236.424 197.226ZM232.105 279.632L232.628 269.646L181.673 266.975L181.149 276.961L180.626 286.948L231.582 289.618L232.105 279.632ZM181.149 276.961L171.163 276.438L152.994 623.13L162.98 623.654L172.966 624.177L191.136 277.485L181.149 276.961ZM162.98 623.654L163.503 613.667L77.6837 609.17L77.1604 619.156L76.637 629.142L162.457 633.64L162.98 623.654ZM233.928 627.372L223.941 626.849L223.418 636.835L233.404 637.358L233.928 627.372ZM256.416 198.273L256.939 188.287L246.953 187.764L246.429 197.75L256.416 198.273ZM339.31 202.618L349.296 203.141L349.819 193.155L339.833 192.631L339.31 202.618ZM316.822 631.716L316.298 641.702L326.285 642.226L326.808 632.24L316.822 631.716ZM233.928 627.372L243.914 627.895L266.402 198.797L256.416 198.273L246.429 197.75L223.941 626.849L233.928 627.372ZM256.416 198.273L255.892 208.26L338.786 212.604L339.31 202.618L339.833 192.631L256.939 188.287L256.416 198.273ZM339.31 202.618L329.324 202.094L306.835 631.193L316.822 631.716L326.808 632.24L349.296 203.141L339.31 202.618ZM316.822 631.716L317.345 621.73L234.451 617.386L233.928 627.372L233.404 637.358L316.298 641.702L316.822 631.716ZM350.955 633.505L340.968 632.982L340.445 642.968L350.431 643.491L350.955 633.505ZM373.443 204.406L373.966 194.42L363.98 193.897L363.456 203.883L373.443 204.406ZM504.123 211.255L514.087 210.409L513.349 201.725L504.646 201.269L504.123 211.255ZM526.496 474.75L516.532 475.596L536.319 476.624L526.496 474.75ZM576.045 215.024L576.569 205.038L567.857 204.581L566.223 213.15L576.045 215.024ZM707.945 221.937L717.931 222.46L718.454 212.474L708.468 211.951L707.945 221.937ZM685.456 651.035L684.933 661.022L694.919 661.545L695.443 651.559L685.456 651.035ZM606.951 646.921L596.965 646.398L596.441 656.384L606.428 656.907L606.951 646.921ZM623.153 337.775L633.139 338.298L613.373 335.687L623.153 337.775ZM557.702 644.34L557.179 654.326L565.7 654.773L567.482 646.428L557.702 644.34ZM480.659 640.303L470.725 641.448L471.694 649.846L480.136 650.289L480.659 640.303ZM444.687 328.422L454.621 327.276L434.7 327.899L444.687 328.422ZM428.485 637.568L427.962 647.554L437.948 648.078L438.471 638.092L428.485 637.568ZM350.955 633.505L360.941 634.028L383.429 204.93L373.443 204.406L363.456 203.883L340.968 632.982L350.955 633.505ZM373.443 204.406L372.919 214.393L503.599 221.241L504.123 211.255L504.646 201.269L373.966 194.42L373.443 204.406ZM504.123 211.255L494.159 212.101L516.532 475.596L526.496 474.75L536.46 473.904L514.087 210.409L504.123 211.255ZM526.496 474.75L536.319 476.624L585.868 216.898L576.045 215.024L566.223 213.15L516.673 472.876L526.496 474.75ZM576.045 215.024L575.522 225.011L707.421 231.923L707.945 221.937L708.468 211.951L576.569 205.038L576.045 215.024ZM707.945 221.937L697.958 221.414L675.47 650.512L685.456 651.035L695.443 651.559L717.931 222.46L707.945 221.937ZM685.456 651.035L685.98 641.049L607.474 636.935L606.951 646.921L606.428 656.907L684.933 661.022L685.456 651.035ZM606.951 646.921L616.937 647.445L633.139 338.298L623.153 337.775L613.166 337.252L596.965 646.398L606.951 646.921ZM623.153 337.775L613.373 335.687L547.922 642.252L557.702 644.34L567.482 646.428L632.932 339.863L623.153 337.775ZM557.702 644.34L558.225 634.354L481.183 630.316L480.659 640.303L480.136 650.289L557.179 654.326L557.702 644.34ZM480.659 640.303L490.593 639.157L454.621 327.276L444.687 328.422L434.752 329.568L470.725 641.448L480.659 640.303ZM444.687 328.422L434.7 327.899L418.499 637.045L428.485 637.568L438.471 638.092L454.673 328.945L444.687 328.422ZM428.485 637.568L429.008 627.582L351.478 623.519L350.955 633.505L350.431 643.491L427.962 647.554L428.485 637.568ZM723.49 653.029L713.504 652.505L712.981 662.492L722.967 663.015L723.49 653.029ZM745.978 223.93L746.502 213.944L736.515 213.42L735.992 223.407L745.978 223.93ZM917.618 232.925L927.604 233.449L928.127 223.462L918.141 222.939L917.618 232.925ZM913.273 315.819L912.75 325.806L922.736 326.329L923.26 316.343L913.273 315.819ZM828.917 311.398L829.44 301.412L819.454 300.889L818.93 310.875L828.917 311.398ZM824.534 395.024L814.548 394.501L814.024 404.487L824.011 405.01L824.534 395.024ZM905.478 399.266L915.464 399.789L915.987 389.803L906.001 389.28L905.478 399.266ZM901.248 479.966L900.725 489.952L910.711 490.475L911.235 480.489L901.248 479.966ZM820.305 475.724L820.828 465.737L810.842 465.214L810.318 475.2L820.305 475.724ZM815.155 573.978L805.169 573.454L804.646 583.441L814.632 583.964L815.155 573.978ZM905.12 578.692L915.106 579.216L915.629 569.229L905.643 568.706L905.12 578.692ZM900.737 662.318L900.214 672.304L910.2 672.828L910.723 662.841L900.737 662.318ZM723.49 653.029L733.476 653.552L755.965 224.453L745.978 223.93L735.992 223.407L713.504 652.505L723.49 653.029ZM745.978 223.93L745.455 233.916L917.094 242.912L917.618 232.925L918.141 222.939L746.502 213.944L745.978 223.93ZM917.618 232.925L907.631 232.402L903.287 315.296L913.273 315.819L923.26 316.343L927.604 233.449L917.618 232.925ZM913.273 315.819L913.797 305.833L829.44 301.412L828.917 311.398L828.393 321.385L912.75 325.806L913.273 315.819ZM828.917 311.398L818.93 310.875L814.548 394.501L824.534 395.024L834.52 395.547L838.903 311.922L828.917 311.398ZM824.534 395.024L824.011 405.01L904.954 409.252L905.478 399.266L906.001 389.28L825.057 385.038L824.534 395.024ZM905.478 399.266L895.491 398.743L891.262 479.442L901.248 479.966L911.235 480.489L915.464 399.789L905.478 399.266ZM901.248 479.966L901.772 469.98L820.828 465.737L820.305 475.724L819.781 485.71L900.725 489.952L901.248 479.966ZM820.305 475.724L810.318 475.2L805.169 573.454L815.155 573.978L825.142 574.501L830.291 476.247L820.305 475.724ZM815.155 573.978L814.632 583.964L904.596 588.679L905.12 578.692L905.643 568.706L815.679 563.991L815.155 573.978ZM905.12 578.692L895.133 578.169L890.751 661.795L900.737 662.318L910.723 662.841L915.106 579.216L905.12 578.692ZM900.737 662.318L901.261 652.332L724.014 643.042L723.49 653.029L722.967 663.015L900.214 672.304L900.737 662.318ZM929.262 663.813L919.276 663.289L918.753 673.276L928.739 673.799L929.262 663.813ZM951.751 234.714L952.274 224.728L942.288 224.205L941.764 234.191L951.751 234.714ZM1037.57 239.212L1047.56 239.735L1048.08 229.749L1038.09 229.226L1037.57 239.212ZM1018.92 595.169L1008.93 594.645L1008.41 604.632L1018.39 605.155L1018.92 595.169ZM1107.17 599.794L1117.16 600.317L1117.68 590.331L1107.7 589.808L1107.17 599.794ZM1103.34 672.936L1102.82 682.922L1112.8 683.445L1113.33 673.459L1103.34 672.936ZM929.262 663.813L939.249 664.336L961.737 235.238L951.751 234.714L941.764 234.191L919.276 663.289L929.262 663.813ZM951.751 234.714L951.227 244.7L1037.05 249.198L1037.57 239.212L1038.09 229.226L952.274 224.728L951.751 234.714ZM1037.57 239.212L1027.58 238.688L1008.93 594.645L1018.92 595.169L1028.9 595.692L1047.56 239.735L1037.57 239.212ZM1018.92 595.169L1018.39 605.155L1106.65 609.78L1107.17 599.794L1107.7 589.808L1019.44 585.182L1018.92 595.169ZM1107.17 599.794L1097.19 599.271L1093.35 672.412L1103.34 672.936L1113.33 673.459L1117.16 600.317L1107.17 599.794ZM1103.34 672.936L1103.86 662.95L929.786 653.827L929.262 663.813L928.739 673.799L1102.82 682.922L1103.34 672.936ZM1123.82 674.009L1113.83 673.486L1113.31 683.472L1123.3 683.995L1123.82 674.009ZM1146.31 244.911L1146.83 234.924L1136.84 234.401L1136.32 244.387L1146.31 244.911ZM1229.2 249.255L1239.19 249.778L1239.71 239.792L1229.73 239.269L1229.2 249.255ZM1206.71 678.353L1206.19 688.34L1216.18 688.863L1216.7 678.877L1206.71 678.353ZM1123.82 674.009L1133.81 674.532L1156.29 245.434L1146.31 244.911L1136.32 244.387L1113.83 673.486L1123.82 674.009ZM1146.31 244.911L1145.78 254.897L1228.68 259.241L1229.2 249.255L1229.73 239.269L1146.83 234.924L1146.31 244.911ZM1229.2 249.255L1219.22 248.731L1196.73 677.83L1206.71 678.353L1216.7 678.877L1239.19 249.778L1229.2 249.255ZM1206.71 678.353L1207.24 668.367L1124.34 664.023L1123.82 674.009L1123.3 683.995L1206.19 688.34L1206.71 678.353ZM1240.85 680.142L1230.86 679.619L1230.34 689.605L1240.32 690.129L1240.85 680.142ZM1263.33 251.044L1263.86 241.057L1253.87 240.534L1253.35 250.52L1263.33 251.044ZM1351.59 255.669L1361.5 254.298L1360.37 246.115L1352.12 245.683L1351.59 255.669ZM1380.32 463.267L1370.41 464.638L1390.3 463.791L1380.32 463.267ZM1391.09 257.739L1391.61 247.753L1381.63 247.229L1381.1 257.216L1391.09 257.739ZM1473.98 262.083L1483.97 262.607L1484.49 252.62L1474.51 252.097L1473.98 262.083ZM1451.49 691.182L1450.97 701.168L1460.96 701.692L1461.48 691.705L1451.49 691.182ZM1367.63 686.786L1357.73 688.232L1358.92 696.344L1367.1 696.773L1367.63 686.786ZM1335.96 469.988L1345.85 468.543L1325.97 469.465L1335.96 469.988ZM1324.72 684.538L1324.19 694.524L1334.18 695.047L1334.7 685.061L1324.72 684.538ZM1240.85 680.142L1250.83 680.666L1273.32 251.567L1263.33 251.044L1253.35 250.52L1230.86 679.619L1240.85 680.142ZM1263.33 251.044L1262.81 261.03L1351.07 265.655L1351.59 255.669L1352.12 245.683L1263.86 241.057L1263.33 251.044ZM1351.59 255.669L1341.69 257.04L1370.41 464.638L1380.32 463.267L1390.22 461.897L1361.5 254.298L1351.59 255.669ZM1380.32 463.267L1390.3 463.791L1401.08 258.262L1391.09 257.739L1381.1 257.216L1370.33 462.744L1380.32 463.267ZM1391.09 257.739L1390.57 267.725L1473.46 272.07L1473.98 262.083L1474.51 252.097L1391.61 247.753L1391.09 257.739ZM1473.98 262.083L1464 261.56L1441.51 690.659L1451.49 691.182L1461.48 691.705L1483.97 262.607L1473.98 262.083ZM1451.49 691.182L1452.02 681.196L1368.15 676.8L1367.63 686.786L1367.1 696.773L1450.97 701.168L1451.49 691.182ZM1367.63 686.786L1377.52 685.341L1345.85 468.543L1335.96 469.988L1326.06 471.434L1357.73 688.232L1367.63 686.786ZM1335.96 469.988L1325.97 469.465L1314.73 684.014L1324.72 684.538L1334.7 685.061L1345.95 470.512L1335.96 469.988ZM1324.72 684.538L1325.24 674.551L1241.37 670.156L1240.85 680.142L1240.32 690.129L1324.19 694.524L1324.72 684.538ZM1489.53 693.175L1479.54 692.652L1479.02 702.638L1489.01 703.161L1489.53 693.175ZM1512.02 264.077L1512.54 254.09L1502.55 253.567L1502.03 263.553L1512.02 264.077ZM1683.66 273.072L1693.64 273.595L1694.17 263.609L1684.18 263.085L1683.66 273.072ZM1679.31 355.966L1678.79 365.952L1688.77 366.475L1689.3 356.489L1679.31 355.966ZM1594.96 351.545L1595.48 341.559L1585.49 341.035L1584.97 351.021L1594.96 351.545ZM1590.57 435.17L1580.59 434.647L1580.06 444.633L1590.05 445.157L1590.57 435.17ZM1671.52 439.412L1681.5 439.936L1682.03 429.949L1672.04 429.426L1671.52 439.412ZM1667.29 520.112L1666.76 530.098L1676.75 530.622L1677.27 520.636L1667.29 520.112ZM1586.34 515.87L1586.87 505.884L1576.88 505.36L1576.36 515.347L1586.34 515.87ZM1581.19 614.124L1571.21 613.601L1570.68 623.587L1580.67 624.11L1581.19 614.124ZM1671.16 618.839L1681.14 619.362L1681.67 609.376L1671.68 608.852L1671.16 618.839ZM1666.78 702.464L1666.25 712.451L1676.24 712.974L1676.76 702.988L1666.78 702.464ZM1489.53 693.175L1499.52 693.698L1522 264.6L1512.02 264.077L1502.03 263.553L1479.54 692.652L1489.53 693.175ZM1512.02 264.077L1511.49 274.063L1683.13 283.058L1683.66 273.072L1684.18 263.085L1512.54 254.09L1512.02 264.077ZM1683.66 273.072L1673.67 272.548L1669.33 355.442L1679.31 355.966L1689.3 356.489L1693.64 273.595L1683.66 273.072ZM1679.31 355.966L1679.84 345.98L1595.48 341.559L1594.96 351.545L1594.43 361.531L1678.79 365.952L1679.31 355.966ZM1594.96 351.545L1584.97 351.021L1580.59 434.647L1590.57 435.17L1600.56 435.694L1604.94 352.068L1594.96 351.545ZM1590.57 435.17L1590.05 445.157L1670.99 449.399L1671.52 439.412L1672.04 429.426L1591.1 425.184L1590.57 435.17ZM1671.52 439.412L1661.53 438.889L1657.3 519.589L1667.29 520.112L1677.27 520.636L1681.5 439.936L1671.52 439.412ZM1667.29 520.112L1667.81 510.126L1586.87 505.884L1586.34 515.87L1585.82 525.856L1666.76 530.098L1667.29 520.112ZM1586.34 515.87L1576.36 515.347L1571.21 613.601L1581.19 614.124L1591.18 614.647L1596.33 516.393L1586.34 515.87ZM1581.19 614.124L1580.67 624.11L1670.63 628.825L1671.16 618.839L1671.68 608.852L1581.72 604.138L1581.19 614.124ZM1671.16 618.839L1661.17 618.315L1656.79 701.941L1666.78 702.464L1676.76 702.988L1681.14 619.362L1671.16 618.839ZM1666.78 702.464L1667.3 692.478L1490.05 683.189L1489.53 693.175L1489.01 703.161L1666.25 712.451L1666.78 702.464Z" fill="black" mask="url(#path-1-outside-1_827_1286)"/>
<path d="M77.1604 619.156L67.1741 618.633L66.6507 628.619L76.637 629.142L77.1604 619.156ZM95.3297 272.464L105.316 272.987L105.839 263.001L95.8531 262.478L95.3297 272.464ZM44.3743 269.793L34.388 269.27L33.8646 279.256L43.8509 279.78L44.3743 269.793ZM48.693 187.387L49.2164 177.401L39.2301 176.877L38.7067 186.864L48.693 187.387ZM236.424 197.226L246.41 197.749L246.933 187.763L236.947 187.239L236.424 197.226ZM232.105 279.632L231.582 289.618L241.568 290.142L242.091 280.155L232.105 279.632ZM181.149 276.961L181.673 266.975L171.687 266.452L171.163 276.438L181.149 276.961ZM162.98 623.654L162.457 633.64L172.443 634.163L172.966 624.177L162.98 623.654ZM77.1604 619.156L87.1467 619.679L105.316 272.987L95.3297 272.464L85.3434 271.941L67.1741 618.633L77.1604 619.156ZM95.3297 272.464L95.8531 262.478L44.8976 259.807L44.3743 269.793L43.8509 279.78L94.8064 282.45L95.3297 272.464ZM44.3743 269.793L54.3606 270.317L58.6793 187.91L48.693 187.387L38.7067 186.864L34.388 269.27L44.3743 269.793ZM48.693 187.387L48.1697 197.373L235.9 207.212L236.424 197.226L236.947 187.239L49.2164 177.401L48.693 187.387ZM236.424 197.226L226.437 196.702L222.119 279.109L232.105 279.632L242.091 280.155L246.41 197.749L236.424 197.226ZM232.105 279.632L232.628 269.646L181.673 266.975L181.149 276.961L180.626 286.948L231.582 289.618L232.105 279.632ZM181.149 276.961L171.163 276.438L152.994 623.13L162.98 623.654L172.966 624.177L191.136 277.485L181.149 276.961ZM162.98 623.654L163.503 613.667L77.6837 609.17L77.1604 619.156L76.637 629.142L162.457 633.64L162.98 623.654ZM233.928 627.372L223.941 626.849L223.418 636.835L233.404 637.358L233.928 627.372ZM256.416 198.273L256.939 188.287L246.953 187.764L246.429 197.75L256.416 198.273ZM339.31 202.618L349.296 203.141L349.819 193.155L339.833 192.631L339.31 202.618ZM316.822 631.716L316.298 641.702L326.285 642.226L326.808 632.24L316.822 631.716ZM233.928 627.372L243.914 627.895L266.402 198.797L256.416 198.273L246.429 197.75L223.941 626.849L233.928 627.372ZM256.416 198.273L255.892 208.26L338.786 212.604L339.31 202.618L339.833 192.631L256.939 188.287L256.416 198.273ZM339.31 202.618L329.324 202.094L306.835 631.193L316.822 631.716L326.808 632.24L349.296 203.141L339.31 202.618ZM316.822 631.716L317.345 621.73L234.451 617.386L233.928 627.372L233.404 637.358L316.298 641.702L316.822 631.716ZM350.955 633.505L340.968 632.982L340.445 642.968L350.431 643.491L350.955 633.505ZM373.443 204.406L373.966 194.42L363.98 193.897L363.456 203.883L373.443 204.406ZM504.123 211.255L514.087 210.409L513.349 201.725L504.646 201.269L504.123 211.255ZM526.496 474.75L516.532 475.596L536.319 476.624L526.496 474.75ZM576.045 215.024L576.569 205.038L567.857 204.581L566.223 213.15L576.045 215.024ZM707.945 221.937L717.931 222.46L718.454 212.474L708.468 211.951L707.945 221.937ZM685.456 651.035L684.933 661.022L694.919 661.545L695.443 651.559L685.456 651.035ZM606.951 646.921L596.965 646.398L596.441 656.384L606.428 656.907L606.951 646.921ZM623.153 337.775L633.139 338.298L613.373 335.687L623.153 337.775ZM557.702 644.34L557.179 654.326L565.7 654.773L567.482 646.428L557.702 644.34ZM480.659 640.303L470.725 641.448L471.694 649.846L480.136 650.289L480.659 640.303ZM444.687 328.422L454.621 327.276L434.7 327.899L444.687 328.422ZM428.485 637.568L427.962 647.554L437.948 648.078L438.471 638.092L428.485 637.568ZM350.955 633.505L360.941 634.028L383.429 204.93L373.443 204.406L363.456 203.883L340.968 632.982L350.955 633.505ZM373.443 204.406L372.919 214.393L503.599 221.241L504.123 211.255L504.646 201.269L373.966 194.42L373.443 204.406ZM504.123 211.255L494.159 212.101L516.532 475.596L526.496 474.75L536.46 473.904L514.087 210.409L504.123 211.255ZM526.496 474.75L536.319 476.624L585.868 216.898L576.045 215.024L566.223 213.15L516.673 472.876L526.496 474.75ZM576.045 215.024L575.522 225.011L707.421 231.923L707.945 221.937L708.468 211.951L576.569 205.038L576.045 215.024ZM707.945 221.937L697.958 221.414L675.47 650.512L685.456 651.035L695.443 651.559L717.931 222.46L707.945 221.937ZM685.456 651.035L685.98 641.049L607.474 636.935L606.951 646.921L606.428 656.907L684.933 661.022L685.456 651.035ZM606.951 646.921L616.937 647.445L633.139 338.298L623.153 337.775L613.166 337.252L596.965 646.398L606.951 646.921ZM623.153 337.775L613.373 335.687L547.922 642.252L557.702 644.34L567.482 646.428L632.932 339.863L623.153 337.775ZM557.702 644.34L558.225 634.354L481.183 630.316L480.659 640.303L480.136 650.289L557.179 654.326L557.702 644.34ZM480.659 640.303L490.593 639.157L454.621 327.276L444.687 328.422L434.752 329.568L470.725 641.448L480.659 640.303ZM444.687 328.422L434.7 327.899L418.499 637.045L428.485 637.568L438.471 638.092L454.673 328.945L444.687 328.422ZM428.485 637.568L429.008 627.582L351.478 623.519L350.955 633.505L350.431 643.491L427.962 647.554L428.485 637.568ZM723.49 653.029L713.504 652.505L712.981 662.492L722.967 663.015L723.49 653.029ZM745.978 223.93L746.502 213.944L736.515 213.42L735.992 223.407L745.978 223.93ZM917.618 232.925L927.604 233.449L928.127 223.462L918.141 222.939L917.618 232.925ZM913.273 315.819L912.75 325.806L922.736 326.329L923.26 316.343L913.273 315.819ZM828.917 311.398L829.44 301.412L819.454 300.889L818.93 310.875L828.917 311.398ZM824.534 395.024L814.548 394.501L814.024 404.487L824.011 405.01L824.534 395.024ZM905.478 399.266L915.464 399.789L915.987 389.803L906.001 389.28L905.478 399.266ZM901.248 479.966L900.725 489.952L910.711 490.475L911.235 480.489L901.248 479.966ZM820.305 475.724L820.828 465.737L810.842 465.214L810.318 475.2L820.305 475.724ZM815.155 573.978L805.169 573.454L804.646 583.441L814.632 583.964L815.155 573.978ZM905.12 578.692L915.106 579.216L915.629 569.229L905.643 568.706L905.12 578.692ZM900.737 662.318L900.214 672.304L910.2 672.828L910.723 662.841L900.737 662.318ZM723.49 653.029L733.476 653.552L755.965 224.453L745.978 223.93L735.992 223.407L713.504 652.505L723.49 653.029ZM745.978 223.93L745.455 233.916L917.094 242.912L917.618 232.925L918.141 222.939L746.502 213.944L745.978 223.93ZM917.618 232.925L907.631 232.402L903.287 315.296L913.273 315.819L923.26 316.343L927.604 233.449L917.618 232.925ZM913.273 315.819L913.797 305.833L829.44 301.412L828.917 311.398L828.393 321.385L912.75 325.806L913.273 315.819ZM828.917 311.398L818.93 310.875L814.548 394.501L824.534 395.024L834.52 395.547L838.903 311.922L828.917 311.398ZM824.534 395.024L824.011 405.01L904.954 409.252L905.478 399.266L906.001 389.28L825.057 385.038L824.534 395.024ZM905.478 399.266L895.491 398.743L891.262 479.442L901.248 479.966L911.235 480.489L915.464 399.789L905.478 399.266ZM901.248 479.966L901.772 469.98L820.828 465.737L820.305 475.724L819.781 485.71L900.725 489.952L901.248 479.966ZM820.305 475.724L810.318 475.2L805.169 573.454L815.155 573.978L825.142 574.501L830.291 476.247L820.305 475.724ZM815.155 573.978L814.632 583.964L904.596 588.679L905.12 578.692L905.643 568.706L815.679 563.991L815.155 573.978ZM905.12 578.692L895.133 578.169L890.751 661.795L900.737 662.318L910.723 662.841L915.106 579.216L905.12 578.692ZM900.737 662.318L901.261 652.332L724.014 643.042L723.49 653.029L722.967 663.015L900.214 672.304L900.737 662.318ZM929.262 663.813L919.276 663.289L918.753 673.276L928.739 673.799L929.262 663.813ZM951.751 234.714L952.274 224.728L942.288 224.205L941.764 234.191L951.751 234.714ZM1037.57 239.212L1047.56 239.735L1048.08 229.749L1038.09 229.226L1037.57 239.212ZM1018.92 595.169L1008.93 594.645L1008.41 604.632L1018.39 605.155L1018.92 595.169ZM1107.17 599.794L1117.16 600.317L1117.68 590.331L1107.7 589.808L1107.17 599.794ZM1103.34 672.936L1102.82 682.922L1112.8 683.445L1113.33 673.459L1103.34 672.936ZM929.262 663.813L939.249 664.336L961.737 235.238L951.751 234.714L941.764 234.191L919.276 663.289L929.262 663.813ZM951.751 234.714L951.227 244.7L1037.05 249.198L1037.57 239.212L1038.09 229.226L952.274 224.728L951.751 234.714ZM1037.57 239.212L1027.58 238.688L1008.93 594.645L1018.92 595.169L1028.9 595.692L1047.56 239.735L1037.57 239.212ZM1018.92 595.169L1018.39 605.155L1106.65 609.78L1107.17 599.794L1107.7 589.808L1019.44 585.182L1018.92 595.169ZM1107.17 599.794L1097.19 599.271L1093.35 672.412L1103.34 672.936L1113.33 673.459L1117.16 600.317L1107.17 599.794ZM1103.34 672.936L1103.86 662.95L929.786 653.827L929.262 663.813L928.739 673.799L1102.82 682.922L1103.34 672.936ZM1123.82 674.009L1113.83 673.486L1113.31 683.472L1123.3 683.995L1123.82 674.009ZM1146.31 244.911L1146.83 234.924L1136.84 234.401L1136.32 244.387L1146.31 244.911ZM1229.2 249.255L1239.19 249.778L1239.71 239.792L1229.73 239.269L1229.2 249.255ZM1206.71 678.353L1206.19 688.34L1216.18 688.863L1216.7 678.877L1206.71 678.353ZM1123.82 674.009L1133.81 674.532L1156.29 245.434L1146.31 244.911L1136.32 244.387L1113.83 673.486L1123.82 674.009ZM1146.31 244.911L1145.78 254.897L1228.68 259.241L1229.2 249.255L1229.73 239.269L1146.83 234.924L1146.31 244.911ZM1229.2 249.255L1219.22 248.731L1196.73 677.83L1206.71 678.353L1216.7 678.877L1239.19 249.778L1229.2 249.255ZM1206.71 678.353L1207.24 668.367L1124.34 664.023L1123.82 674.009L1123.3 683.995L1206.19 688.34L1206.71 678.353ZM1240.85 680.142L1230.86 679.619L1230.34 689.605L1240.32 690.129L1240.85 680.142ZM1263.33 251.044L1263.86 241.057L1253.87 240.534L1253.35 250.52L1263.33 251.044ZM1351.59 255.669L1361.5 254.298L1360.37 246.115L1352.12 245.683L1351.59 255.669ZM1380.32 463.267L1370.41 464.638L1390.3 463.791L1380.32 463.267ZM1391.09 257.739L1391.61 247.753L1381.63 247.229L1381.1 257.216L1391.09 257.739ZM1473.98 262.083L1483.97 262.607L1484.49 252.62L1474.51 252.097L1473.98 262.083ZM1451.49 691.182L1450.97 701.168L1460.96 701.692L1461.48 691.705L1451.49 691.182ZM1367.63 686.786L1357.73 688.232L1358.92 696.344L1367.1 696.773L1367.63 686.786ZM1335.96 469.988L1345.85 468.543L1325.97 469.465L1335.96 469.988ZM1324.72 684.538L1324.19 694.524L1334.18 695.047L1334.7 685.061L1324.72 684.538ZM1240.85 680.142L1250.83 680.666L1273.32 251.567L1263.33 251.044L1253.35 250.52L1230.86 679.619L1240.85 680.142ZM1263.33 251.044L1262.81 261.03L1351.07 265.655L1351.59 255.669L1352.12 245.683L1263.86 241.057L1263.33 251.044ZM1351.59 255.669L1341.69 257.04L1370.41 464.638L1380.32 463.267L1390.22 461.897L1361.5 254.298L1351.59 255.669ZM1380.32 463.267L1390.3 463.791L1401.08 258.262L1391.09 257.739L1381.1 257.216L1370.33 462.744L1380.32 463.267ZM1391.09 257.739L1390.57 267.725L1473.46 272.07L1473.98 262.083L1474.51 252.097L1391.61 247.753L1391.09 257.739ZM1473.98 262.083L1464 261.56L1441.51 690.659L1451.49 691.182L1461.48 691.705L1483.97 262.607L1473.98 262.083ZM1451.49 691.182L1452.02 681.196L1368.15 676.8L1367.63 686.786L1367.1 696.773L1450.97 701.168L1451.49 691.182ZM1367.63 686.786L1377.52 685.341L1345.85 468.543L1335.96 469.988L1326.06 471.434L1357.73 688.232L1367.63 686.786ZM1335.96 469.988L1325.97 469.465L1314.73 684.014L1324.72 684.538L1334.7 685.061L1345.95 470.512L1335.96 469.988ZM1324.72 684.538L1325.24 674.551L1241.37 670.156L1240.85 680.142L1240.32 690.129L1324.19 694.524L1324.72 684.538ZM1489.53 693.175L1479.54 692.652L1479.02 702.638L1489.01 703.161L1489.53 693.175ZM1512.02 264.077L1512.54 254.09L1502.55 253.567L1502.03 263.553L1512.02 264.077ZM1683.66 273.072L1693.64 273.595L1694.17 263.609L1684.18 263.085L1683.66 273.072ZM1679.31 355.966L1678.79 365.952L1688.77 366.475L1689.3 356.489L1679.31 355.966ZM1594.96 351.545L1595.48 341.559L1585.49 341.035L1584.97 351.021L1594.96 351.545ZM1590.57 435.17L1580.59 434.647L1580.06 444.633L1590.05 445.157L1590.57 435.17ZM1671.52 439.412L1681.5 439.936L1682.03 429.949L1672.04 429.426L1671.52 439.412ZM1667.29 520.112L1666.76 530.098L1676.75 530.622L1677.27 520.636L1667.29 520.112ZM1586.34 515.87L1586.87 505.884L1576.88 505.36L1576.36 515.347L1586.34 515.87ZM1581.19 614.124L1571.21 613.601L1570.68 623.587L1580.67 624.11L1581.19 614.124ZM1671.16 618.839L1681.14 619.362L1681.67 609.376L1671.68 608.852L1671.16 618.839ZM1666.78 702.464L1666.25 712.451L1676.24 712.974L1676.76 702.988L1666.78 702.464ZM1489.53 693.175L1499.52 693.698L1522 264.6L1512.02 264.077L1502.03 263.553L1479.54 692.652L1489.53 693.175ZM1512.02 264.077L1511.49 274.063L1683.13 283.058L1683.66 273.072L1684.18 263.085L1512.54 254.09L1512.02 264.077ZM1683.66 273.072L1673.67 272.548L1669.33 355.442L1679.31 355.966L1689.3 356.489L1693.64 273.595L1683.66 273.072ZM1679.31 355.966L1679.84 345.98L1595.48 341.559L1594.96 351.545L1594.43 361.531L1678.79 365.952L1679.31 355.966ZM1594.96 351.545L1584.97 351.021L1580.59 434.647L1590.57 435.17L1600.56 435.694L1604.94 352.068L1594.96 351.545ZM1590.57 435.17L1590.05 445.157L1670.99 449.399L1671.52 439.412L1672.04 429.426L1591.1 425.184L1590.57 435.17ZM1671.52 439.412L1661.53 438.889L1657.3 519.589L1667.29 520.112L1677.27 520.636L1681.5 439.936L1671.52 439.412ZM1667.29 520.112L1667.81 510.126L1586.87 505.884L1586.34 515.87L1585.82 525.856L1666.76 530.098L1667.29 520.112ZM1586.34 515.87L1576.36 515.347L1571.21 613.601L1581.19 614.124L1591.18 614.647L1596.33 516.393L1586.34 515.87ZM1581.19 614.124L1580.67 624.11L1670.63 628.825L1671.16 618.839L1671.68 608.852L1581.72 604.138L1581.19 614.124ZM1671.16 618.839L1661.17 618.315L1656.79 701.941L1666.78 702.464L1676.76 702.988L1681.14 619.362L1671.16 618.839ZM1666.78 702.464L1667.3 692.478L1490.05 683.189L1489.53 693.175L1489.01 703.161L1666.25 712.451L1666.78 702.464Z" fill="black" mask="url(#path-1-outside-1_827_1286)"/>
<mask id="path-3-outside-2_827_1286" maskUnits="userSpaceOnUse" x="-1.43829" y="142.622" width="1685.27" height="536.47" fill="black">
<rect fill="white" x="-1.43829" y="142.622" width="1685.27" height="536.47"/>
<path d="M60.9084 585.259L79.0778 238.566L28.1223 235.896L32.4411 153.49L220.172 163.328L215.853 245.734L164.898 243.064L146.728 589.756L60.9084 585.259ZM217.676 593.474L240.164 164.376L323.058 168.72L300.57 597.819L217.676 593.474ZM334.703 599.608L357.191 170.509L487.871 177.358L510.244 440.852L559.794 181.127L691.693 188.039L669.204 617.138L590.699 613.024L606.901 303.878L541.45 610.443L464.407 606.405L428.435 294.525L412.233 603.671L334.703 599.608ZM707.238 619.131L729.726 190.033L901.366 199.028L897.021 281.922L812.665 277.501L808.282 361.126L889.226 365.369L884.996 446.068L804.053 441.826L798.903 540.08L888.868 544.795L884.485 628.42L707.238 619.131ZM913.011 629.915L935.499 200.817L1021.32 205.314L1002.66 561.271L1090.92 565.897L1087.09 639.038L913.011 629.915ZM1107.57 640.112L1130.06 211.013L1212.95 215.357L1190.46 644.456L1107.57 640.112ZM1224.59 646.245L1247.08 217.146L1335.34 221.772L1364.07 429.37L1374.84 223.841L1457.73 228.186L1435.24 657.284L1351.37 652.889L1319.71 436.091L1308.46 650.64L1224.59 646.245ZM1473.28 659.278L1495.76 230.179L1667.4 239.174L1663.06 322.068L1578.7 317.647L1574.32 401.273L1655.26 405.515L1651.03 486.215L1570.09 481.973L1564.94 580.226L1654.91 584.941L1650.52 668.567L1473.28 659.278Z"/>
</mask>
<path d="M60.9084 585.259L79.0778 238.566L28.1223 235.896L32.4411 153.49L220.172 163.328L215.853 245.734L164.898 243.064L146.728 589.756L60.9084 585.259ZM217.676 593.474L240.164 164.376L323.058 168.72L300.57 597.819L217.676 593.474ZM334.703 599.608L357.191 170.509L487.871 177.358L510.244 440.852L559.794 181.127L691.693 188.039L669.204 617.138L590.699 613.024L606.901 303.878L541.45 610.443L464.407 606.405L428.435 294.525L412.233 603.671L334.703 599.608ZM707.238 619.131L729.726 190.033L901.366 199.028L897.021 281.922L812.665 277.501L808.282 361.126L889.226 365.369L884.996 446.068L804.053 441.826L798.903 540.08L888.868 544.795L884.485 628.42L707.238 619.131ZM913.011 629.915L935.499 200.817L1021.32 205.314L1002.66 561.271L1090.92 565.897L1087.09 639.038L913.011 629.915ZM1107.57 640.112L1130.06 211.013L1212.95 215.357L1190.46 644.456L1107.57 640.112ZM1224.59 646.245L1247.08 217.146L1335.34 221.772L1364.07 429.37L1374.84 223.841L1457.73 228.186L1435.24 657.284L1351.37 652.889L1319.71 436.091L1308.46 650.64L1224.59 646.245ZM1473.28 659.278L1495.76 230.179L1667.4 239.174L1663.06 322.068L1578.7 317.647L1574.32 401.273L1655.26 405.515L1651.03 486.215L1570.09 481.973L1564.94 580.226L1654.91 584.941L1650.52 668.567L1473.28 659.278Z" fill="white"/>
<path d="M60.9084 585.259L50.9221 584.735L50.3988 594.722L60.3851 595.245L60.9084 585.259ZM79.0778 238.566L89.0641 239.09L89.5874 229.103L79.6012 228.58L79.0778 238.566ZM28.1223 235.896L18.136 235.373L17.6127 245.359L27.599 245.882L28.1223 235.896ZM32.4411 153.49L32.9644 143.503L22.9781 142.98L22.4548 152.966L32.4411 153.49ZM220.172 163.328L230.158 163.851L230.681 153.865L220.695 153.342L220.172 163.328ZM215.853 245.734L215.33 255.721L225.316 256.244L225.839 246.258L215.853 245.734ZM164.898 243.064L165.421 233.078L155.435 232.554L154.911 242.541L164.898 243.064ZM146.728 589.756L146.205 599.742L156.191 600.266L156.714 590.28L146.728 589.756ZM60.9084 585.259L70.8947 585.782L89.0641 239.09L79.0778 238.566L69.0915 238.043L50.9221 584.735L60.9084 585.259ZM79.0778 238.566L79.6012 228.58L28.6457 225.91L28.1223 235.896L27.599 245.882L78.5544 248.553L79.0778 238.566ZM28.1223 235.896L38.1086 236.419L42.4274 154.013L32.4411 153.49L22.4548 152.966L18.136 235.373L28.1223 235.896ZM32.4411 153.49L31.9177 163.476L219.648 173.314L220.172 163.328L220.695 153.342L32.9644 143.503L32.4411 153.49ZM220.172 163.328L210.185 162.805L205.867 245.211L215.853 245.734L225.839 246.258L230.158 163.851L220.172 163.328ZM215.853 245.734L216.376 235.748L165.421 233.078L164.898 243.064L164.374 253.05L215.33 255.721L215.853 245.734ZM164.898 243.064L154.911 242.541L136.742 589.233L146.728 589.756L156.714 590.28L174.884 243.587L164.898 243.064ZM146.728 589.756L147.252 579.77L61.4318 575.272L60.9084 585.259L60.3851 595.245L146.205 599.742L146.728 589.756ZM217.676 593.474L207.689 592.951L207.166 602.937L217.152 603.461L217.676 593.474ZM240.164 164.376L240.687 154.389L230.701 153.866L230.178 163.852L240.164 164.376ZM323.058 168.72L333.044 169.243L333.568 159.257L323.581 158.734L323.058 168.72ZM300.57 597.819L300.046 607.805L310.033 608.328L310.556 598.342L300.57 597.819ZM217.676 593.474L227.662 593.998L250.15 164.899L240.164 164.376L230.178 163.852L207.689 592.951L217.676 593.474ZM240.164 164.376L239.64 174.362L322.535 178.706L323.058 168.72L323.581 158.734L240.687 154.389L240.164 164.376ZM323.058 168.72L313.072 168.197L290.583 597.295L300.57 597.819L310.556 598.342L333.044 169.243L323.058 168.72ZM300.57 597.819L301.093 587.832L218.199 583.488L217.676 593.474L217.152 603.461L300.046 607.805L300.57 597.819ZM334.703 599.608L324.716 599.084L324.193 609.07L334.179 609.594L334.703 599.608ZM357.191 170.509L357.714 160.523L347.728 159.999L347.204 169.986L357.191 170.509ZM487.871 177.358L497.835 176.512L497.098 167.827L488.394 167.371L487.871 177.358ZM510.244 440.852L500.28 441.699L520.067 442.726L510.244 440.852ZM559.794 181.127L560.317 171.141L551.605 170.684L549.971 179.253L559.794 181.127ZM691.693 188.039L701.679 188.563L702.202 178.576L692.216 178.053L691.693 188.039ZM669.204 617.138L668.681 627.124L678.667 627.648L679.191 617.661L669.204 617.138ZM590.699 613.024L580.713 612.5L580.189 622.487L590.176 623.01L590.699 613.024ZM606.901 303.878L616.887 304.401L597.121 301.79L606.901 303.878ZM541.45 610.443L540.927 620.429L549.448 620.876L551.23 612.531L541.45 610.443ZM464.407 606.405L454.473 607.551L455.442 615.949L463.884 616.391L464.407 606.405ZM428.435 294.525L438.369 293.379L418.448 294.001L428.435 294.525ZM412.233 603.671L411.71 613.657L421.696 614.18L422.219 604.194L412.233 603.671ZM334.703 599.608L344.689 600.131L367.177 171.032L357.191 170.509L347.204 169.986L324.716 599.084L334.703 599.608ZM357.191 170.509L356.667 180.495L487.347 187.344L487.871 177.358L488.394 167.371L357.714 160.523L357.191 170.509ZM487.871 177.358L477.907 178.204L500.28 441.699L510.244 440.852L520.208 440.006L497.835 176.512L487.871 177.358ZM510.244 440.852L520.067 442.726L569.616 183.001L559.794 181.127L549.971 179.253L500.421 438.979L510.244 440.852ZM559.794 181.127L559.27 191.113L691.169 198.026L691.693 188.039L692.216 178.053L560.317 171.141L559.794 181.127ZM691.693 188.039L681.706 187.516L659.218 616.615L669.204 617.138L679.191 617.661L701.679 188.563L691.693 188.039ZM669.204 617.138L669.728 607.152L591.222 603.037L590.699 613.024L590.176 623.01L668.681 627.124L669.204 617.138ZM590.699 613.024L600.685 613.547L616.887 304.401L606.901 303.878L596.914 303.354L580.713 612.5L590.699 613.024ZM606.901 303.878L597.121 301.79L531.671 608.355L541.45 610.443L551.23 612.531L616.68 305.966L606.901 303.878ZM541.45 610.443L541.973 600.456L464.931 596.419L464.407 606.405L463.884 616.391L540.927 620.429L541.45 610.443ZM464.407 606.405L474.342 605.259L438.369 293.379L428.435 294.525L418.5 295.67L454.473 607.551L464.407 606.405ZM428.435 294.525L418.448 294.001L402.247 603.147L412.233 603.671L422.219 604.194L438.421 295.048L428.435 294.525ZM412.233 603.671L412.756 593.684L335.226 589.621L334.703 599.608L334.179 609.594L411.71 613.657L412.233 603.671ZM707.238 619.131L697.252 618.608L696.729 628.594L706.715 629.118L707.238 619.131ZM729.726 190.033L730.25 180.046L720.263 179.523L719.74 189.509L729.726 190.033ZM901.366 199.028L911.352 199.551L911.875 189.565L901.889 189.042L901.366 199.028ZM897.021 281.922L896.498 291.908L906.484 292.432L907.008 282.445L897.021 281.922ZM812.665 277.501L813.188 267.515L803.202 266.991L802.678 276.978L812.665 277.501ZM808.282 361.126L798.296 360.603L797.772 370.589L807.759 371.113L808.282 361.126ZM889.226 365.369L899.212 365.892L899.735 355.906L889.749 355.382L889.226 365.369ZM884.996 446.068L884.473 456.055L894.459 456.578L894.983 446.592L884.996 446.068ZM804.053 441.826L804.576 431.84L794.59 431.317L794.066 441.303L804.053 441.826ZM798.903 540.08L788.917 539.557L788.394 549.543L798.38 550.066L798.903 540.08ZM888.868 544.795L898.854 545.318L899.377 535.332L889.391 534.809L888.868 544.795ZM884.485 628.42L883.962 638.407L893.948 638.93L894.471 628.944L884.485 628.42ZM707.238 619.131L717.225 619.655L739.713 190.556L729.726 190.033L719.74 189.509L697.252 618.608L707.238 619.131ZM729.726 190.033L729.203 200.019L900.842 209.014L901.366 199.028L901.889 189.042L730.25 180.046L729.726 190.033ZM901.366 199.028L891.379 198.505L887.035 281.399L897.021 281.922L907.008 282.445L911.352 199.551L901.366 199.028ZM897.021 281.922L897.545 271.936L813.188 267.515L812.665 277.501L812.141 287.487L896.498 291.908L897.021 281.922ZM812.665 277.501L802.678 276.978L798.296 360.603L808.282 361.126L818.268 361.65L822.651 278.024L812.665 277.501ZM808.282 361.126L807.759 371.113L888.702 375.355L889.226 365.369L889.749 355.382L808.805 351.14L808.282 361.126ZM889.226 365.369L879.239 364.845L875.01 445.545L884.996 446.068L894.983 446.592L899.212 365.892L889.226 365.369ZM884.996 446.068L885.52 436.082L804.576 431.84L804.053 441.826L803.529 451.813L884.473 456.055L884.996 446.068ZM804.053 441.826L794.066 441.303L788.917 539.557L798.903 540.08L808.89 540.603L814.039 442.35L804.053 441.826ZM798.903 540.08L798.38 550.066L888.344 554.781L888.868 544.795L889.391 534.809L799.427 530.094L798.903 540.08ZM888.868 544.795L878.882 544.272L874.499 627.897L884.485 628.42L894.471 628.944L898.854 545.318L888.868 544.795ZM884.485 628.42L885.009 618.434L707.762 609.145L707.238 619.131L706.715 629.118L883.962 638.407L884.485 628.42ZM913.011 629.915L903.024 629.392L902.501 639.378L912.487 639.902L913.011 629.915ZM935.499 200.817L936.022 190.83L926.036 190.307L925.512 200.293L935.499 200.817ZM1021.32 205.314L1031.3 205.838L1031.83 195.851L1021.84 195.328L1021.32 205.314ZM1002.66 561.271L992.677 560.748L992.154 570.734L1002.14 571.257L1002.66 561.271ZM1090.92 565.897L1100.91 566.42L1101.43 556.434L1091.44 555.91L1090.92 565.897ZM1087.09 639.038L1086.56 649.025L1096.55 649.548L1097.07 639.562L1087.09 639.038ZM913.011 629.915L922.997 630.439L945.485 201.34L935.499 200.817L925.512 200.293L903.024 629.392L913.011 629.915ZM935.499 200.817L934.975 210.803L1020.79 215.301L1021.32 205.314L1021.84 195.328L936.022 190.83L935.499 200.817ZM1021.32 205.314L1011.33 204.791L992.677 560.748L1002.66 561.271L1012.65 561.795L1031.3 205.838L1021.32 205.314ZM1002.66 561.271L1002.14 571.257L1090.4 575.883L1090.92 565.897L1091.44 555.91L1003.19 551.285L1002.66 561.271ZM1090.92 565.897L1080.93 565.373L1077.1 638.515L1087.09 639.038L1097.07 639.562L1100.91 566.42L1090.92 565.897ZM1087.09 639.038L1087.61 629.052L913.534 619.929L913.011 629.915L912.487 639.902L1086.56 649.025L1087.09 639.038ZM1107.57 640.112L1097.58 639.588L1097.06 649.575L1107.04 650.098L1107.57 640.112ZM1130.06 211.013L1130.58 201.027L1120.59 200.503L1120.07 210.49L1130.06 211.013ZM1212.95 215.357L1222.94 215.881L1223.46 205.894L1213.47 205.371L1212.95 215.357ZM1190.46 644.456L1189.94 654.442L1199.92 654.966L1200.45 644.979L1190.46 644.456ZM1107.57 640.112L1117.55 640.635L1140.04 211.536L1130.06 211.013L1120.07 210.49L1097.58 639.588L1107.57 640.112ZM1130.06 211.013L1129.53 220.999L1212.43 225.344L1212.95 215.357L1213.47 205.371L1130.58 201.027L1130.06 211.013ZM1212.95 215.357L1202.96 214.834L1180.48 643.933L1190.46 644.456L1200.45 644.979L1222.94 215.881L1212.95 215.357ZM1190.46 644.456L1190.99 634.47L1108.09 630.125L1107.57 640.112L1107.04 650.098L1189.94 654.442L1190.46 644.456ZM1224.59 646.245L1214.61 645.721L1214.08 655.708L1224.07 656.231L1224.59 646.245ZM1247.08 217.146L1247.61 207.16L1237.62 206.637L1237.1 216.623L1247.08 217.146ZM1335.34 221.772L1345.25 220.401L1344.11 212.218L1335.86 211.785L1335.34 221.772ZM1364.07 429.37L1354.16 430.741L1374.05 429.893L1364.07 429.37ZM1374.84 223.841L1375.36 213.855L1365.37 213.332L1364.85 223.318L1374.84 223.841ZM1457.73 228.186L1467.72 228.709L1468.24 218.723L1458.25 218.199L1457.73 228.186ZM1435.24 657.284L1434.72 667.271L1444.71 667.794L1445.23 657.808L1435.24 657.284ZM1351.37 652.889L1341.48 654.334L1342.66 662.446L1350.85 662.875L1351.37 652.889ZM1319.71 436.091L1329.6 434.646L1309.72 435.568L1319.71 436.091ZM1308.46 650.64L1307.94 660.626L1317.93 661.15L1318.45 651.164L1308.46 650.64ZM1224.59 646.245L1234.58 646.768L1257.07 217.67L1247.08 217.146L1237.1 216.623L1214.61 645.721L1224.59 646.245ZM1247.08 217.146L1246.56 227.132L1334.82 231.758L1335.34 221.772L1335.86 211.785L1247.61 207.16L1247.08 217.146ZM1335.34 221.772L1325.43 223.142L1354.16 430.741L1364.07 429.37L1373.97 427.999L1345.25 220.401L1335.34 221.772ZM1364.07 429.37L1374.05 429.893L1384.82 224.365L1374.84 223.841L1364.85 223.318L1354.08 428.847L1364.07 429.37ZM1374.84 223.841L1374.31 233.828L1457.21 238.172L1457.73 228.186L1458.25 218.199L1375.36 213.855L1374.84 223.841ZM1457.73 228.186L1447.74 227.662L1425.26 656.761L1435.24 657.284L1445.23 657.808L1467.72 228.709L1457.73 228.186ZM1435.24 657.284L1435.77 647.298L1351.9 642.903L1351.37 652.889L1350.85 662.875L1434.72 667.271L1435.24 657.284ZM1351.37 652.889L1361.27 651.444L1329.6 434.646L1319.71 436.091L1309.81 437.536L1341.48 654.334L1351.37 652.889ZM1319.71 436.091L1309.72 435.568L1298.48 650.117L1308.46 650.64L1318.45 651.164L1329.69 436.614L1319.71 436.091ZM1308.46 650.64L1308.99 640.654L1225.12 636.258L1224.59 646.245L1224.07 656.231L1307.94 660.626L1308.46 650.64ZM1473.28 659.278L1463.29 658.754L1462.77 668.741L1472.75 669.264L1473.28 659.278ZM1495.76 230.179L1496.29 220.193L1486.3 219.669L1485.78 229.656L1495.76 230.179ZM1667.4 239.174L1677.39 239.698L1677.91 229.711L1667.93 229.188L1667.4 239.174ZM1663.06 322.068L1662.54 332.055L1672.52 332.578L1673.05 322.592L1663.06 322.068ZM1578.7 317.647L1579.23 307.661L1569.24 307.138L1568.72 317.124L1578.7 317.647ZM1574.32 401.273L1564.33 400.749L1563.81 410.736L1573.8 411.259L1574.32 401.273ZM1655.26 405.515L1665.25 406.038L1665.77 396.052L1655.79 395.529L1655.26 405.515ZM1651.03 486.215L1650.51 496.201L1660.5 496.724L1661.02 486.738L1651.03 486.215ZM1570.09 481.973L1570.61 471.986L1560.63 471.463L1560.1 481.449L1570.09 481.973ZM1564.94 580.226L1554.96 579.703L1554.43 589.689L1564.42 590.213L1564.94 580.226ZM1654.91 584.941L1664.89 585.465L1665.42 575.478L1655.43 574.955L1654.91 584.941ZM1650.52 668.567L1650 678.553L1659.99 679.076L1660.51 669.09L1650.52 668.567ZM1473.28 659.278L1483.26 659.801L1505.75 230.702L1495.76 230.179L1485.78 229.656L1463.29 658.754L1473.28 659.278ZM1495.76 230.179L1495.24 240.165L1666.88 249.161L1667.4 239.174L1667.93 229.188L1496.29 220.193L1495.76 230.179ZM1667.4 239.174L1657.42 238.651L1653.07 321.545L1663.06 322.068L1673.05 322.592L1677.39 239.698L1667.4 239.174ZM1663.06 322.068L1663.58 312.082L1579.23 307.661L1578.7 317.647L1578.18 327.634L1662.54 332.055L1663.06 322.068ZM1578.7 317.647L1568.72 317.124L1564.33 400.749L1574.32 401.273L1584.31 401.796L1588.69 318.171L1578.7 317.647ZM1574.32 401.273L1573.8 411.259L1654.74 415.501L1655.26 405.515L1655.79 395.529L1574.84 391.287L1574.32 401.273ZM1655.26 405.515L1645.28 404.992L1641.05 485.691L1651.03 486.215L1661.02 486.738L1665.25 406.038L1655.26 405.515ZM1651.03 486.215L1651.56 476.228L1570.61 471.986L1570.09 481.973L1569.57 491.959L1650.51 496.201L1651.03 486.215ZM1570.09 481.973L1560.1 481.449L1554.96 579.703L1564.94 580.226L1574.93 580.75L1580.08 482.496L1570.09 481.973ZM1564.94 580.226L1564.42 590.213L1654.38 594.928L1654.91 584.941L1655.43 574.955L1565.47 570.24L1564.94 580.226ZM1654.91 584.941L1644.92 584.418L1640.54 668.043L1650.52 668.567L1660.51 669.09L1664.89 585.465L1654.91 584.941ZM1650.52 668.567L1651.05 658.58L1473.8 649.291L1473.28 659.278L1472.75 669.264L1650 678.553L1650.52 668.567Z" fill="black" mask="url(#path-3-outside-2_827_1286)"/>
<path d="M60.9084 585.259L50.9221 584.735L50.3988 594.722L60.3851 595.245L60.9084 585.259ZM79.0778 238.566L89.0641 239.09L89.5874 229.103L79.6012 228.58L79.0778 238.566ZM28.1223 235.896L18.136 235.373L17.6127 245.359L27.599 245.882L28.1223 235.896ZM32.4411 153.49L32.9644 143.503L22.9781 142.98L22.4548 152.966L32.4411 153.49ZM220.172 163.328L230.158 163.851L230.681 153.865L220.695 153.342L220.172 163.328ZM215.853 245.734L215.33 255.721L225.316 256.244L225.839 246.258L215.853 245.734ZM164.898 243.064L165.421 233.078L155.435 232.554L154.911 242.541L164.898 243.064ZM146.728 589.756L146.205 599.742L156.191 600.266L156.714 590.28L146.728 589.756ZM60.9084 585.259L70.8947 585.782L89.0641 239.09L79.0778 238.566L69.0915 238.043L50.9221 584.735L60.9084 585.259ZM79.0778 238.566L79.6012 228.58L28.6457 225.91L28.1223 235.896L27.599 245.882L78.5544 248.553L79.0778 238.566ZM28.1223 235.896L38.1086 236.419L42.4274 154.013L32.4411 153.49L22.4548 152.966L18.136 235.373L28.1223 235.896ZM32.4411 153.49L31.9177 163.476L219.648 173.314L220.172 163.328L220.695 153.342L32.9644 143.503L32.4411 153.49ZM220.172 163.328L210.185 162.805L205.867 245.211L215.853 245.734L225.839 246.258L230.158 163.851L220.172 163.328ZM215.853 245.734L216.376 235.748L165.421 233.078L164.898 243.064L164.374 253.05L215.33 255.721L215.853 245.734ZM164.898 243.064L154.911 242.541L136.742 589.233L146.728 589.756L156.714 590.28L174.884 243.587L164.898 243.064ZM146.728 589.756L147.252 579.77L61.4318 575.272L60.9084 585.259L60.3851 595.245L146.205 599.742L146.728 589.756ZM217.676 593.474L207.689 592.951L207.166 602.937L217.152 603.461L217.676 593.474ZM240.164 164.376L240.687 154.389L230.701 153.866L230.178 163.852L240.164 164.376ZM323.058 168.72L333.044 169.243L333.568 159.257L323.581 158.734L323.058 168.72ZM300.57 597.819L300.046 607.805L310.033 608.328L310.556 598.342L300.57 597.819ZM217.676 593.474L227.662 593.998L250.15 164.899L240.164 164.376L230.178 163.852L207.689 592.951L217.676 593.474ZM240.164 164.376L239.64 174.362L322.535 178.706L323.058 168.72L323.581 158.734L240.687 154.389L240.164 164.376ZM323.058 168.72L313.072 168.197L290.583 597.295L300.57 597.819L310.556 598.342L333.044 169.243L323.058 168.72ZM300.57 597.819L301.093 587.832L218.199 583.488L217.676 593.474L217.152 603.461L300.046 607.805L300.57 597.819ZM334.703 599.608L324.716 599.084L324.193 609.07L334.179 609.594L334.703 599.608ZM357.191 170.509L357.714 160.523L347.728 159.999L347.204 169.986L357.191 170.509ZM487.871 177.358L497.835 176.512L497.098 167.827L488.394 167.371L487.871 177.358ZM510.244 440.852L500.28 441.699L520.067 442.726L510.244 440.852ZM559.794 181.127L560.317 171.141L551.605 170.684L549.971 179.253L559.794 181.127ZM691.693 188.039L701.679 188.563L702.202 178.576L692.216 178.053L691.693 188.039ZM669.204 617.138L668.681 627.124L678.667 627.648L679.191 617.661L669.204 617.138ZM590.699 613.024L580.713 612.5L580.189 622.487L590.176 623.01L590.699 613.024ZM606.901 303.878L616.887 304.401L597.121 301.79L606.901 303.878ZM541.45 610.443L540.927 620.429L549.448 620.876L551.23 612.531L541.45 610.443ZM464.407 606.405L454.473 607.551L455.442 615.949L463.884 616.391L464.407 606.405ZM428.435 294.525L438.369 293.379L418.448 294.001L428.435 294.525ZM412.233 603.671L411.71 613.657L421.696 614.18L422.219 604.194L412.233 603.671ZM334.703 599.608L344.689 600.131L367.177 171.032L357.191 170.509L347.204 169.986L324.716 599.084L334.703 599.608ZM357.191 170.509L356.667 180.495L487.347 187.344L487.871 177.358L488.394 167.371L357.714 160.523L357.191 170.509ZM487.871 177.358L477.907 178.204L500.28 441.699L510.244 440.852L520.208 440.006L497.835 176.512L487.871 177.358ZM510.244 440.852L520.067 442.726L569.616 183.001L559.794 181.127L549.971 179.253L500.421 438.979L510.244 440.852ZM559.794 181.127L559.27 191.113L691.169 198.026L691.693 188.039L692.216 178.053L560.317 171.141L559.794 181.127ZM691.693 188.039L681.706 187.516L659.218 616.615L669.204 617.138L679.191 617.661L701.679 188.563L691.693 188.039ZM669.204 617.138L669.728 607.152L591.222 603.037L590.699 613.024L590.176 623.01L668.681 627.124L669.204 617.138ZM590.699 613.024L600.685 613.547L616.887 304.401L606.901 303.878L596.914 303.354L580.713 612.5L590.699 613.024ZM606.901 303.878L597.121 301.79L531.671 608.355L541.45 610.443L551.23 612.531L616.68 305.966L606.901 303.878ZM541.45 610.443L541.973 600.456L464.931 596.419L464.407 606.405L463.884 616.391L540.927 620.429L541.45 610.443ZM464.407 606.405L474.342 605.259L438.369 293.379L428.435 294.525L418.5 295.67L454.473 607.551L464.407 606.405ZM428.435 294.525L418.448 294.001L402.247 603.147L412.233 603.671L422.219 604.194L438.421 295.048L428.435 294.525ZM412.233 603.671L412.756 593.684L335.226 589.621L334.703 599.608L334.179 609.594L411.71 613.657L412.233 603.671ZM707.238 619.131L697.252 618.608L696.729 628.594L706.715 629.118L707.238 619.131ZM729.726 190.033L730.25 180.046L720.263 179.523L719.74 189.509L729.726 190.033ZM901.366 199.028L911.352 199.551L911.875 189.565L901.889 189.042L901.366 199.028ZM897.021 281.922L896.498 291.908L906.484 292.432L907.008 282.445L897.021 281.922ZM812.665 277.501L813.188 267.515L803.202 266.991L802.678 276.978L812.665 277.501ZM808.282 361.126L798.296 360.603L797.772 370.589L807.759 371.113L808.282 361.126ZM889.226 365.369L899.212 365.892L899.735 355.906L889.749 355.382L889.226 365.369ZM884.996 446.068L884.473 456.055L894.459 456.578L894.983 446.592L884.996 446.068ZM804.053 441.826L804.576 431.84L794.59 431.317L794.066 441.303L804.053 441.826ZM798.903 540.08L788.917 539.557L788.394 549.543L798.38 550.066L798.903 540.08ZM888.868 544.795L898.854 545.318L899.377 535.332L889.391 534.809L888.868 544.795ZM884.485 628.42L883.962 638.407L893.948 638.93L894.471 628.944L884.485 628.42ZM707.238 619.131L717.225 619.655L739.713 190.556L729.726 190.033L719.74 189.509L697.252 618.608L707.238 619.131ZM729.726 190.033L729.203 200.019L900.842 209.014L901.366 199.028L901.889 189.042L730.25 180.046L729.726 190.033ZM901.366 199.028L891.379 198.505L887.035 281.399L897.021 281.922L907.008 282.445L911.352 199.551L901.366 199.028ZM897.021 281.922L897.545 271.936L813.188 267.515L812.665 277.501L812.141 287.487L896.498 291.908L897.021 281.922ZM812.665 277.501L802.678 276.978L798.296 360.603L808.282 361.126L818.268 361.65L822.651 278.024L812.665 277.501ZM808.282 361.126L807.759 371.113L888.702 375.355L889.226 365.369L889.749 355.382L808.805 351.14L808.282 361.126ZM889.226 365.369L879.239 364.845L875.01 445.545L884.996 446.068L894.983 446.592L899.212 365.892L889.226 365.369ZM884.996 446.068L885.52 436.082L804.576 431.84L804.053 441.826L803.529 451.813L884.473 456.055L884.996 446.068ZM804.053 441.826L794.066 441.303L788.917 539.557L798.903 540.08L808.89 540.603L814.039 442.35L804.053 441.826ZM798.903 540.08L798.38 550.066L888.344 554.781L888.868 544.795L889.391 534.809L799.427 530.094L798.903 540.08ZM888.868 544.795L878.882 544.272L874.499 627.897L884.485 628.42L894.471 628.944L898.854 545.318L888.868 544.795ZM884.485 628.42L885.009 618.434L707.762 609.145L707.238 619.131L706.715 629.118L883.962 638.407L884.485 628.42ZM913.011 629.915L903.024 629.392L902.501 639.378L912.487 639.902L913.011 629.915ZM935.499 200.817L936.022 190.83L926.036 190.307L925.512 200.293L935.499 200.817ZM1021.32 205.314L1031.3 205.838L1031.83 195.851L1021.84 195.328L1021.32 205.314ZM1002.66 561.271L992.677 560.748L992.154 570.734L1002.14 571.257L1002.66 561.271ZM1090.92 565.897L1100.91 566.42L1101.43 556.434L1091.44 555.91L1090.92 565.897ZM1087.09 639.038L1086.56 649.025L1096.55 649.548L1097.07 639.562L1087.09 639.038ZM913.011 629.915L922.997 630.439L945.485 201.34L935.499 200.817L925.512 200.293L903.024 629.392L913.011 629.915ZM935.499 200.817L934.975 210.803L1020.79 215.301L1021.32 205.314L1021.84 195.328L936.022 190.83L935.499 200.817ZM1021.32 205.314L1011.33 204.791L992.677 560.748L1002.66 561.271L1012.65 561.795L1031.3 205.838L1021.32 205.314ZM1002.66 561.271L1002.14 571.257L1090.4 575.883L1090.92 565.897L1091.44 555.91L1003.19 551.285L1002.66 561.271ZM1090.92 565.897L1080.93 565.373L1077.1 638.515L1087.09 639.038L1097.07 639.562L1100.91 566.42L1090.92 565.897ZM1087.09 639.038L1087.61 629.052L913.534 619.929L913.011 629.915L912.487 639.902L1086.56 649.025L1087.09 639.038ZM1107.57 640.112L1097.58 639.588L1097.06 649.575L1107.04 650.098L1107.57 640.112ZM1130.06 211.013L1130.58 201.027L1120.59 200.503L1120.07 210.49L1130.06 211.013ZM1212.95 215.357L1222.94 215.881L1223.46 205.894L1213.47 205.371L1212.95 215.357ZM1190.46 644.456L1189.94 654.442L1199.92 654.966L1200.45 644.979L1190.46 644.456ZM1107.57 640.112L1117.55 640.635L1140.04 211.536L1130.06 211.013L1120.07 210.49L1097.58 639.588L1107.57 640.112ZM1130.06 211.013L1129.53 220.999L1212.43 225.344L1212.95 215.357L1213.47 205.371L1130.58 201.027L1130.06 211.013ZM1212.95 215.357L1202.96 214.834L1180.48 643.933L1190.46 644.456L1200.45 644.979L1222.94 215.881L1212.95 215.357ZM1190.46 644.456L1190.99 634.47L1108.09 630.125L1107.57 640.112L1107.04 650.098L1189.94 654.442L1190.46 644.456ZM1224.59 646.245L1214.61 645.721L1214.08 655.708L1224.07 656.231L1224.59 646.245ZM1247.08 217.146L1247.61 207.16L1237.62 206.637L1237.1 216.623L1247.08 217.146ZM1335.34 221.772L1345.25 220.401L1344.11 212.218L1335.86 211.785L1335.34 221.772ZM1364.07 429.37L1354.16 430.741L1374.05 429.893L1364.07 429.37ZM1374.84 223.841L1375.36 213.855L1365.37 213.332L1364.85 223.318L1374.84 223.841ZM1457.73 228.186L1467.72 228.709L1468.24 218.723L1458.25 218.199L1457.73 228.186ZM1435.24 657.284L1434.72 667.271L1444.71 667.794L1445.23 657.808L1435.24 657.284ZM1351.37 652.889L1341.48 654.334L1342.66 662.446L1350.85 662.875L1351.37 652.889ZM1319.71 436.091L1329.6 434.646L1309.72 435.568L1319.71 436.091ZM1308.46 650.64L1307.94 660.626L1317.93 661.15L1318.45 651.164L1308.46 650.64ZM1224.59 646.245L1234.58 646.768L1257.07 217.67L1247.08 217.146L1237.1 216.623L1214.61 645.721L1224.59 646.245ZM1247.08 217.146L1246.56 227.132L1334.82 231.758L1335.34 221.772L1335.86 211.785L1247.61 207.16L1247.08 217.146ZM1335.34 221.772L1325.43 223.142L1354.16 430.741L1364.07 429.37L1373.97 427.999L1345.25 220.401L1335.34 221.772ZM1364.07 429.37L1374.05 429.893L1384.82 224.365L1374.84 223.841L1364.85 223.318L1354.08 428.847L1364.07 429.37ZM1374.84 223.841L1374.31 233.828L1457.21 238.172L1457.73 228.186L1458.25 218.199L1375.36 213.855L1374.84 223.841ZM1457.73 228.186L1447.74 227.662L1425.26 656.761L1435.24 657.284L1445.23 657.808L1467.72 228.709L1457.73 228.186ZM1435.24 657.284L1435.77 647.298L1351.9 642.903L1351.37 652.889L1350.85 662.875L1434.72 667.271L1435.24 657.284ZM1351.37 652.889L1361.27 651.444L1329.6 434.646L1319.71 436.091L1309.81 437.536L1341.48 654.334L1351.37 652.889ZM1319.71 436.091L1309.72 435.568L1298.48 650.117L1308.46 650.64L1318.45 651.164L1329.69 436.614L1319.71 436.091ZM1308.46 650.64L1308.99 640.654L1225.12 636.258L1224.59 646.245L1224.07 656.231L1307.94 660.626L1308.46 650.64ZM1473.28 659.278L1463.29 658.754L1462.77 668.741L1472.75 669.264L1473.28 659.278ZM1495.76 230.179L1496.29 220.193L1486.3 219.669L1485.78 229.656L1495.76 230.179ZM1667.4 239.174L1677.39 239.698L1677.91 229.711L1667.93 229.188L1667.4 239.174ZM1663.06 322.068L1662.54 332.055L1672.52 332.578L1673.05 322.592L1663.06 322.068ZM1578.7 317.647L1579.23 307.661L1569.24 307.138L1568.72 317.124L1578.7 317.647ZM1574.32 401.273L1564.33 400.749L1563.81 410.736L1573.8 411.259L1574.32 401.273ZM1655.26 405.515L1665.25 406.038L1665.77 396.052L1655.79 395.529L1655.26 405.515ZM1651.03 486.215L1650.51 496.201L1660.5 496.724L1661.02 486.738L1651.03 486.215ZM1570.09 481.973L1570.61 471.986L1560.63 471.463L1560.1 481.449L1570.09 481.973ZM1564.94 580.226L1554.96 579.703L1554.43 589.689L1564.42 590.213L1564.94 580.226ZM1654.91 584.941L1664.89 585.465L1665.42 575.478L1655.43 574.955L1654.91 584.941ZM1650.52 668.567L1650 678.553L1659.99 679.076L1660.51 669.09L1650.52 668.567ZM1473.28 659.278L1483.26 659.801L1505.75 230.702L1495.76 230.179L1485.78 229.656L1463.29 658.754L1473.28 659.278ZM1495.76 230.179L1495.24 240.165L1666.88 249.161L1667.4 239.174L1667.93 229.188L1496.29 220.193L1495.76 230.179ZM1667.4 239.174L1657.42 238.651L1653.07 321.545L1663.06 322.068L1673.05 322.592L1677.39 239.698L1667.4 239.174ZM1663.06 322.068L1663.58 312.082L1579.23 307.661L1578.7 317.647L1578.18 327.634L1662.54 332.055L1663.06 322.068ZM1578.7 317.647L1568.72 317.124L1564.33 400.749L1574.32 401.273L1584.31 401.796L1588.69 318.171L1578.7 317.647ZM1574.32 401.273L1573.8 411.259L1654.74 415.501L1655.26 405.515L1655.79 395.529L1574.84 391.287L1574.32 401.273ZM1655.26 405.515L1645.28 404.992L1641.05 485.691L1651.03 486.215L1661.02 486.738L1665.25 406.038L1655.26 405.515ZM1651.03 486.215L1651.56 476.228L1570.61 471.986L1570.09 481.973L1569.57 491.959L1650.51 496.201L1651.03 486.215ZM1570.09 481.973L1560.1 481.449L1554.96 579.703L1564.94 580.226L1574.93 580.75L1580.08 482.496L1570.09 481.973ZM1564.94 580.226L1564.42 590.213L1654.38 594.928L1654.91 584.941L1655.43 574.955L1565.47 570.24L1564.94 580.226ZM1654.91 584.941L1644.92 584.418L1640.54 668.043L1650.52 668.567L1660.51 669.09L1664.89 585.465L1654.91 584.941ZM1650.52 668.567L1651.05 658.58L1473.8 649.291L1473.28 659.278L1472.75 669.264L1650 678.553L1650.52 668.567Z" fill="black" mask="url(#path-3-outside-2_827_1286)"/>
<path d="M60.9084 585.259L50.9221 584.735L50.3988 594.722L60.3851 595.245L60.9084 585.259ZM79.0778 238.566L89.0641 239.09L89.5874 229.103L79.6012 228.58L79.0778 238.566ZM28.1223 235.896L18.136 235.373L17.6127 245.359L27.599 245.882L28.1223 235.896ZM32.4411 153.49L32.9644 143.503L22.9781 142.98L22.4548 152.966L32.4411 153.49ZM220.172 163.328L230.158 163.851L230.681 153.865L220.695 153.342L220.172 163.328ZM215.853 245.734L215.33 255.721L225.316 256.244L225.839 246.258L215.853 245.734ZM164.898 243.064L165.421 233.078L155.435 232.554L154.911 242.541L164.898 243.064ZM146.728 589.756L146.205 599.742L156.191 600.266L156.714 590.28L146.728 589.756ZM60.9084 585.259L70.8947 585.782L89.0641 239.09L79.0778 238.566L69.0915 238.043L50.9221 584.735L60.9084 585.259ZM79.0778 238.566L79.6012 228.58L28.6457 225.91L28.1223 235.896L27.599 245.882L78.5544 248.553L79.0778 238.566ZM28.1223 235.896L38.1086 236.419L42.4274 154.013L32.4411 153.49L22.4548 152.966L18.136 235.373L28.1223 235.896ZM32.4411 153.49L31.9177 163.476L219.648 173.314L220.172 163.328L220.695 153.342L32.9644 143.503L32.4411 153.49ZM220.172 163.328L210.185 162.805L205.867 245.211L215.853 245.734L225.839 246.258L230.158 163.851L220.172 163.328ZM215.853 245.734L216.376 235.748L165.421 233.078L164.898 243.064L164.374 253.05L215.33 255.721L215.853 245.734ZM164.898 243.064L154.911 242.541L136.742 589.233L146.728 589.756L156.714 590.28L174.884 243.587L164.898 243.064ZM146.728 589.756L147.252 579.77L61.4318 575.272L60.9084 585.259L60.3851 595.245L146.205 599.742L146.728 589.756ZM217.676 593.474L207.689 592.951L207.166 602.937L217.152 603.461L217.676 593.474ZM240.164 164.376L240.687 154.389L230.701 153.866L230.178 163.852L240.164 164.376ZM323.058 168.72L333.044 169.243L333.568 159.257L323.581 158.734L323.058 168.72ZM300.57 597.819L300.046 607.805L310.033 608.328L310.556 598.342L300.57 597.819ZM217.676 593.474L227.662 593.998L250.15 164.899L240.164 164.376L230.178 163.852L207.689 592.951L217.676 593.474ZM240.164 164.376L239.64 174.362L322.535 178.706L323.058 168.72L323.581 158.734L240.687 154.389L240.164 164.376ZM323.058 168.72L313.072 168.197L290.583 597.295L300.57 597.819L310.556 598.342L333.044 169.243L323.058 168.72ZM300.57 597.819L301.093 587.832L218.199 583.488L217.676 593.474L217.152 603.461L300.046 607.805L300.57 597.819ZM334.703 599.608L324.716 599.084L324.193 609.07L334.179 609.594L334.703 599.608ZM357.191 170.509L357.714 160.523L347.728 159.999L347.204 169.986L357.191 170.509ZM487.871 177.358L497.835 176.512L497.098 167.827L488.394 167.371L487.871 177.358ZM510.244 440.852L500.28 441.699L520.067 442.726L510.244 440.852ZM559.794 181.127L560.317 171.141L551.605 170.684L549.971 179.253L559.794 181.127ZM691.693 188.039L701.679 188.563L702.202 178.576L692.216 178.053L691.693 188.039ZM669.204 617.138L668.681 627.124L678.667 627.648L679.191 617.661L669.204 617.138ZM590.699 613.024L580.713 612.5L580.189 622.487L590.176 623.01L590.699 613.024ZM606.901 303.878L616.887 304.401L597.121 301.79L606.901 303.878ZM541.45 610.443L540.927 620.429L549.448 620.876L551.23 612.531L541.45 610.443ZM464.407 606.405L454.473 607.551L455.442 615.949L463.884 616.391L464.407 606.405ZM428.435 294.525L438.369 293.379L418.448 294.001L428.435 294.525ZM412.233 603.671L411.71 613.657L421.696 614.18L422.219 604.194L412.233 603.671ZM334.703 599.608L344.689 600.131L367.177 171.032L357.191 170.509L347.204 169.986L324.716 599.084L334.703 599.608ZM357.191 170.509L356.667 180.495L487.347 187.344L487.871 177.358L488.394 167.371L357.714 160.523L357.191 170.509ZM487.871 177.358L477.907 178.204L500.28 441.699L510.244 440.852L520.208 440.006L497.835 176.512L487.871 177.358ZM510.244 440.852L520.067 442.726L569.616 183.001L559.794 181.127L549.971 179.253L500.421 438.979L510.244 440.852ZM559.794 181.127L559.27 191.113L691.169 198.026L691.693 188.039L692.216 178.053L560.317 171.141L559.794 181.127ZM691.693 188.039L681.706 187.516L659.218 616.615L669.204 617.138L679.191 617.661L701.679 188.563L691.693 188.039ZM669.204 617.138L669.728 607.152L591.222 603.037L590.699 613.024L590.176 623.01L668.681 627.124L669.204 617.138ZM590.699 613.024L600.685 613.547L616.887 304.401L606.901 303.878L596.914 303.354L580.713 612.5L590.699 613.024ZM606.901 303.878L597.121 301.79L531.671 608.355L541.45 610.443L551.23 612.531L616.68 305.966L606.901 303.878ZM541.45 610.443L541.973 600.456L464.931 596.419L464.407 606.405L463.884 616.391L540.927 620.429L541.45 610.443ZM464.407 606.405L474.342 605.259L438.369 293.379L428.435 294.525L418.5 295.67L454.473 607.551L464.407 606.405ZM428.435 294.525L418.448 294.001L402.247 603.147L412.233 603.671L422.219 604.194L438.421 295.048L428.435 294.525ZM412.233 603.671L412.756 593.684L335.226 589.621L334.703 599.608L334.179 609.594L411.71 613.657L412.233 603.671ZM707.238 619.131L697.252 618.608L696.729 628.594L706.715 629.118L707.238 619.131ZM729.726 190.033L730.25 180.046L720.263 179.523L719.74 189.509L729.726 190.033ZM901.366 199.028L911.352 199.551L911.875 189.565L901.889 189.042L901.366 199.028ZM897.021 281.922L896.498 291.908L906.484 292.432L907.008 282.445L897.021 281.922ZM812.665 277.501L813.188 267.515L803.202 266.991L802.678 276.978L812.665 277.501ZM808.282 361.126L798.296 360.603L797.772 370.589L807.759 371.113L808.282 361.126ZM889.226 365.369L899.212 365.892L899.735 355.906L889.749 355.382L889.226 365.369ZM884.996 446.068L884.473 456.055L894.459 456.578L894.983 446.592L884.996 446.068ZM804.053 441.826L804.576 431.84L794.59 431.317L794.066 441.303L804.053 441.826ZM798.903 540.08L788.917 539.557L788.394 549.543L798.38 550.066L798.903 540.08ZM888.868 544.795L898.854 545.318L899.377 535.332L889.391 534.809L888.868 544.795ZM884.485 628.42L883.962 638.407L893.948 638.93L894.471 628.944L884.485 628.42ZM707.238 619.131L717.225 619.655L739.713 190.556L729.726 190.033L719.74 189.509L697.252 618.608L707.238 619.131ZM729.726 190.033L729.203 200.019L900.842 209.014L901.366 199.028L901.889 189.042L730.25 180.046L729.726 190.033ZM901.366 199.028L891.379 198.505L887.035 281.399L897.021 281.922L907.008 282.445L911.352 199.551L901.366 199.028ZM897.021 281.922L897.545 271.936L813.188 267.515L812.665 277.501L812.141 287.487L896.498 291.908L897.021 281.922ZM812.665 277.501L802.678 276.978L798.296 360.603L808.282 361.126L818.268 361.65L822.651 278.024L812.665 277.501ZM808.282 361.126L807.759 371.113L888.702 375.355L889.226 365.369L889.749 355.382L808.805 351.14L808.282 361.126ZM889.226 365.369L879.239 364.845L875.01 445.545L884.996 446.068L894.983 446.592L899.212 365.892L889.226 365.369ZM884.996 446.068L885.52 436.082L804.576 431.84L804.053 441.826L803.529 451.813L884.473 456.055L884.996 446.068ZM804.053 441.826L794.066 441.303L788.917 539.557L798.903 540.08L808.89 540.603L814.039 442.35L804.053 441.826ZM798.903 540.08L798.38 550.066L888.344 554.781L888.868 544.795L889.391 534.809L799.427 530.094L798.903 540.08ZM888.868 544.795L878.882 544.272L874.499 627.897L884.485 628.42L894.471 628.944L898.854 545.318L888.868 544.795ZM884.485 628.42L885.009 618.434L707.762 609.145L707.238 619.131L706.715 629.118L883.962 638.407L884.485 628.42ZM913.011 629.915L903.024 629.392L902.501 639.378L912.487 639.902L913.011 629.915ZM935.499 200.817L936.022 190.83L926.036 190.307L925.512 200.293L935.499 200.817ZM1021.32 205.314L1031.3 205.838L1031.83 195.851L1021.84 195.328L1021.32 205.314ZM1002.66 561.271L992.677 560.748L992.154 570.734L1002.14 571.257L1002.66 561.271ZM1090.92 565.897L1100.91 566.42L1101.43 556.434L1091.44 555.91L1090.92 565.897ZM1087.09 639.038L1086.56 649.025L1096.55 649.548L1097.07 639.562L1087.09 639.038ZM913.011 629.915L922.997 630.439L945.485 201.34L935.499 200.817L925.512 200.293L903.024 629.392L913.011 629.915ZM935.499 200.817L934.975 210.803L1020.79 215.301L1021.32 205.314L1021.84 195.328L936.022 190.83L935.499 200.817ZM1021.32 205.314L1011.33 204.791L992.677 560.748L1002.66 561.271L1012.65 561.795L1031.3 205.838L1021.32 205.314ZM1002.66 561.271L1002.14 571.257L1090.4 575.883L1090.92 565.897L1091.44 555.91L1003.19 551.285L1002.66 561.271ZM1090.92 565.897L1080.93 565.373L1077.1 638.515L1087.09 639.038L1097.07 639.562L1100.91 566.42L1090.92 565.897ZM1087.09 639.038L1087.61 629.052L913.534 619.929L913.011 629.915L912.487 639.902L1086.56 649.025L1087.09 639.038ZM1107.57 640.112L1097.58 639.588L1097.06 649.575L1107.04 650.098L1107.57 640.112ZM1130.06 211.013L1130.58 201.027L1120.59 200.503L1120.07 210.49L1130.06 211.013ZM1212.95 215.357L1222.94 215.881L1223.46 205.894L1213.47 205.371L1212.95 215.357ZM1190.46 644.456L1189.94 654.442L1199.92 654.966L1200.45 644.979L1190.46 644.456ZM1107.57 640.112L1117.55 640.635L1140.04 211.536L1130.06 211.013L1120.07 210.49L1097.58 639.588L1107.57 640.112ZM1130.06 211.013L1129.53 220.999L1212.43 225.344L1212.95 215.357L1213.47 205.371L1130.58 201.027L1130.06 211.013ZM1212.95 215.357L1202.96 214.834L1180.48 643.933L1190.46 644.456L1200.45 644.979L1222.94 215.881L1212.95 215.357ZM1190.46 644.456L1190.99 634.47L1108.09 630.125L1107.57 640.112L1107.04 650.098L1189.94 654.442L1190.46 644.456ZM1224.59 646.245L1214.61 645.721L1214.08 655.708L1224.07 656.231L1224.59 646.245ZM1247.08 217.146L1247.61 207.16L1237.62 206.637L1237.1 216.623L1247.08 217.146ZM1335.34 221.772L1345.25 220.401L1344.11 212.218L1335.86 211.785L1335.34 221.772ZM1364.07 429.37L1354.16 430.741L1374.05 429.893L1364.07 429.37ZM1374.84 223.841L1375.36 213.855L1365.37 213.332L1364.85 223.318L1374.84 223.841ZM1457.73 228.186L1467.72 228.709L1468.24 218.723L1458.25 218.199L1457.73 228.186ZM1435.24 657.284L1434.72 667.271L1444.71 667.794L1445.23 657.808L1435.24 657.284ZM1351.37 652.889L1341.48 654.334L1342.66 662.446L1350.85 662.875L1351.37 652.889ZM1319.71 436.091L1329.6 434.646L1309.72 435.568L1319.71 436.091ZM1308.46 650.64L1307.94 660.626L1317.93 661.15L1318.45 651.164L1308.46 650.64ZM1224.59 646.245L1234.58 646.768L1257.07 217.67L1247.08 217.146L1237.1 216.623L1214.61 645.721L1224.59 646.245ZM1247.08 217.146L1246.56 227.132L1334.82 231.758L1335.34 221.772L1335.86 211.785L1247.61 207.16L1247.08 217.146ZM1335.34 221.772L1325.43 223.142L1354.16 430.741L1364.07 429.37L1373.97 427.999L1345.25 220.401L1335.34 221.772ZM1364.07 429.37L1374.05 429.893L1384.82 224.365L1374.84 223.841L1364.85 223.318L1354.08 428.847L1364.07 429.37ZM1374.84 223.841L1374.31 233.828L1457.21 238.172L1457.73 228.186L1458.25 218.199L1375.36 213.855L1374.84 223.841ZM1457.73 228.186L1447.74 227.662L1425.26 656.761L1435.24 657.284L1445.23 657.808L1467.72 228.709L1457.73 228.186ZM1435.24 657.284L1435.77 647.298L1351.9 642.903L1351.37 652.889L1350.85 662.875L1434.72 667.271L1435.24 657.284ZM1351.37 652.889L1361.27 651.444L1329.6 434.646L1319.71 436.091L1309.81 437.536L1341.48 654.334L1351.37 652.889ZM1319.71 436.091L1309.72 435.568L1298.48 650.117L1308.46 650.64L1318.45 651.164L1329.69 436.614L1319.71 436.091ZM1308.46 650.64L1308.99 640.654L1225.12 636.258L1224.59 646.245L1224.07 656.231L1307.94 660.626L1308.46 650.64ZM1473.28 659.278L1463.29 658.754L1462.77 668.741L1472.75 669.264L1473.28 659.278ZM1495.76 230.179L1496.29 220.193L1486.3 219.669L1485.78 229.656L1495.76 230.179ZM1667.4 239.174L1677.39 239.698L1677.91 229.711L1667.93 229.188L1667.4 239.174ZM1663.06 322.068L1662.54 332.055L1672.52 332.578L1673.05 322.592L1663.06 322.068ZM1578.7 317.647L1579.23 307.661L1569.24 307.138L1568.72 317.124L1578.7 317.647ZM1574.32 401.273L1564.33 400.749L1563.81 410.736L1573.8 411.259L1574.32 401.273ZM1655.26 405.515L1665.25 406.038L1665.77 396.052L1655.79 395.529L1655.26 405.515ZM1651.03 486.215L1650.51 496.201L1660.5 496.724L1661.02 486.738L1651.03 486.215ZM1570.09 481.973L1570.61 471.986L1560.63 471.463L1560.1 481.449L1570.09 481.973ZM1564.94 580.226L1554.96 579.703L1554.43 589.689L1564.42 590.213L1564.94 580.226ZM1654.91 584.941L1664.89 585.465L1665.42 575.478L1655.43 574.955L1654.91 584.941ZM1650.52 668.567L1650 678.553L1659.99 679.076L1660.51 669.09L1650.52 668.567ZM1473.28 659.278L1483.26 659.801L1505.75 230.702L1495.76 230.179L1485.78 229.656L1463.29 658.754L1473.28 659.278ZM1495.76 230.179L1495.24 240.165L1666.88 249.161L1667.4 239.174L1667.93 229.188L1496.29 220.193L1495.76 230.179ZM1667.4 239.174L1657.42 238.651L1653.07 321.545L1663.06 322.068L1673.05 322.592L1677.39 239.698L1667.4 239.174ZM1663.06 322.068L1663.58 312.082L1579.23 307.661L1578.7 317.647L1578.18 327.634L1662.54 332.055L1663.06 322.068ZM1578.7 317.647L1568.72 317.124L1564.33 400.749L1574.32 401.273L1584.31 401.796L1588.69 318.171L1578.7 317.647ZM1574.32 401.273L1573.8 411.259L1654.74 415.501L1655.26 405.515L1655.79 395.529L1574.84 391.287L1574.32 401.273ZM1655.26 405.515L1645.28 404.992L1641.05 485.691L1651.03 486.215L1661.02 486.738L1665.25 406.038L1655.26 405.515ZM1651.03 486.215L1651.56 476.228L1570.61 471.986L1570.09 481.973L1569.57 491.959L1650.51 496.201L1651.03 486.215ZM1570.09 481.973L1560.1 481.449L1554.96 579.703L1564.94 580.226L1574.93 580.75L1580.08 482.496L1570.09 481.973ZM1564.94 580.226L1564.42 590.213L1654.38 594.928L1654.91 584.941L1655.43 574.955L1565.47 570.24L1564.94 580.226ZM1654.91 584.941L1644.92 584.418L1640.54 668.043L1650.52 668.567L1660.51 669.09L1664.89 585.465L1654.91 584.941ZM1650.52 668.567L1651.05 658.58L1473.8 649.291L1473.28 659.278L1472.75 669.264L1650 678.553L1650.52 668.567Z" fill="black" mask="url(#path-3-outside-2_827_1286)"/>
<circle cx="1613" cy="268.001" r="26.001" fill="black"/>
<circle cx="1613" cy="268.001" r="18.0007" fill="#FCFD96"/>
<path d="M1613 228L1613 38" stroke="black" stroke-width="7"/>
<path d="M85 188L85 0" stroke="black" stroke-width="7"/>
<circle cx="85.001" cy="188.001" r="26.001" fill="black"/>
<circle cx="85.0007" cy="188.001" r="18.0007" fill="#FCFD96"/>
</svg>
