<svg width="206" height="208" viewBox="0 0 206 208" fill="none" xmlns="http://www.w3.org/2000/svg">
<path d="M124.989 4C124.588 10.0319 123.488 20.358 121.795 32.3047C119.638 47.5188 116.571 65.019 112.92 79.0439L109.254 93.126L119.603 82.8965C129.896 72.7219 143.484 61.3143 155.556 51.8389C165.037 44.3973 173.413 38.2819 178.432 34.9199L200.45 73.0781C195.026 75.7474 185.546 79.9581 174.373 84.4639C160.144 90.2022 143.488 96.2947 129.545 100.145L115.53 104.014L129.552 107.857C143.49 111.678 160.142 117.77 174.371 123.515C185.543 128.026 195.026 132.246 200.451 134.92L178.436 173.071C173.423 169.704 165.05 163.592 155.576 156.16C143.496 146.684 129.895 135.277 119.603 125.104L109.245 114.864L112.92 128.958C116.57 142.954 119.638 160.453 121.795 175.674C123.488 187.627 124.588 197.964 124.989 204H81.0107C81.412 197.968 82.5117 187.642 84.2051 175.695C86.3616 160.481 89.4293 142.981 93.0801 128.956L96.7461 114.874L86.3975 125.104C76.1044 135.278 62.5163 146.686 50.4443 156.161C40.9633 163.603 32.5858 169.717 27.5674 173.079L5.54883 134.921C10.973 132.252 20.454 128.042 31.627 123.536C45.8561 117.798 62.5116 111.705 76.4551 107.855L90.4697 103.986L76.4482 100.143C62.5095 96.3216 45.8576 90.2304 31.6289 84.4854C20.4561 79.9741 10.973 75.753 5.54785 73.0791L27.5635 34.9277C32.5758 38.2949 40.9494 44.4076 50.4238 51.8398C62.5035 61.3159 76.1053 72.7228 86.3975 82.8965L96.7549 93.1357L93.0801 79.042C89.4298 65.0462 86.3617 47.5475 84.2051 32.3262C82.5115 20.3728 81.4119 10.0358 81.0107 4H124.989Z" fill="white" stroke="black" stroke-width="8"/>
</svg>
