<svg width="205" height="205" viewBox="0 0 205 205" fill="none" xmlns="http://www.w3.org/2000/svg">
<path d="M119.747 55.9941L120.675 58.6045L123.177 57.4141L169.715 35.2842L147.586 81.8232L146.396 84.3252L149.006 85.2529L197.535 102.5L149.006 119.747L146.396 120.675L147.586 123.177L169.715 169.715L123.177 147.586L120.675 146.396L119.747 149.006L102.5 197.535L85.2529 149.006L84.3252 146.396L81.8232 147.586L35.2842 169.715L57.4141 123.177L58.6045 120.675L55.9941 119.747L7.46387 102.5L55.9941 85.2529L58.6045 84.3252L57.4141 81.8232L35.2842 35.2842L81.8232 57.4141L84.3252 58.6045L85.2529 55.9941L102.5 7.46387L119.747 55.9941Z" fill="#875CFF" stroke="black" stroke-width="5"/>
</svg>
